<svg xmlns="http://www.w3.org/2000/svg" xmlns:xlink="http://www.w3.org/1999/xlink" version="1.1" width="1000" height="1000" viewBox="0 0 1000 1000" xml:space="preserve">
<desc>Created with Fabric.js 3.5.0</desc>
<defs>
</defs>
<rect x="0" y="0" width="100%" height="100%" fill="#ffffff"/>
<g transform="matrix(1.3635 0 0 1.3635 499.9545 499.9545)" id="743381">
<g style="" vector-effect="non-scaling-stroke">
		<g transform="matrix(0.1333 0 0 -0.1333 -13.9431 -105.4187)">
<path style="stroke: none; stroke-width: 1; stroke-dasharray: none; stroke-linecap: butt; stroke-dashoffset: 0; stroke-linejoin: miter; stroke-miterlimit: 4; is-custom-font: none; font-file-url: none; fill: rgb(0,0,0); fill-rule: nonzero; opacity: 1;" transform=" translate(-2395.8926, -3290.3155)" d="M 1480 4571 c -64 -25 -167 -79 -175 -91 c -3 -6 -11 -8 -16 -5 c -5 4 -12 -1 -15 -9 c -3 -9 -10 -14 -14 -11 c -4 3 -15 -7 -24 -20 c -9 -14 -21 -23 -27 -20 c -12 8 -110 -65 -103 -77 c 3 -4 -1 -6 -8 -3 c -7 3 -38 -19 -68 -48 c -261 -245 -412 -551 -455 -915 c -8 -67 -18 -129 -24 -139 c -13 -25 -25 -122 -13 -105 c 13 20 22 -20 10 -43 c -19 -33 1 -159 45 -275 c 87 -235 229 -404 472 -566 c 134 -89 392 -202 436 -191 c 11 3 17 2 14 -3 c -8 -13 121 -33 357 -55 c 99 -9 284 3 301 20 c 16 15 75 25 80 12 c 5 -15 47 2 47 19 c 0 8 5 14 10 14 c 6 0 10 7 10 15 c 0 8 -9 15 -19 15 c -11 0 -23 4 -26 10 c -4 6 7 10 24 10 c 24 0 31 -4 31 -20 c 0 -10 9 -24 20 -30 c 21 -11 40 -6 40 11 c 0 6 -4 8 -9 5 c -4 -3 -13 6 -19 19 c -11 23 -9 25 43 41 c 51 16 59 16 108 2 c 98 -30 107 -31 107 -8 c 0 29 -3 35 -20 35 c -8 0 -14 5 -12 10 c 2 6 10 9 18 7 c 17 -3 84 27 84 38 c 0 9 67 37 105 44 c 14 3 32 12 41 20 c 8 9 24 16 34 16 c 10 0 22 5 25 10 c 10 16 25 12 19 -5 c -10 -24 6 -17 16 7 l 9 23 l 6 -22 c 4 -12 14 -24 22 -27 c 8 -3 11 -1 8 4 c -3 6 -1 10 4 10 c 19 0 12 17 -11 27 c -22 10 -22 11 4 9 c 14 0 26 -3 26 -6 c -1 -20 4 -30 12 -25 c 6 4 8 10 5 15 c -5 9 33 26 49 22 c 5 -2 20 7 33 20 c 14 13 27 22 29 20 c 8 -5 74 45 67 51 c -3 4 1 7 10 7 c 17 0 130 67 188 112 c 20 15 42 28 49 28 c 6 0 8 5 4 12 c -4 6 -3 8 4 4 c 13 -8 84 39 74 49 c -4 5 -1 5 5 1 c 20 -11 71 24 66 44 c -4 14 3 20 26 25 c 17 3 35 3 41 0 c 11 -7 115 58 135 83 c 16 20 178 59 305 73 c 61 7 106 17 102 21 c -4 4 -34 14 -67 23 l -60 15 l 63 -6 c 35 -3 75 -10 89 -15 c 14 -5 28 -7 31 -5 c 5 6 -17 232 -25 252 c -3 8 -8 12 -12 9 c -4 -2 -6 10 -4 28 l 4 32 l -14 -30 c -8 -16 -12 -34 -9 -40 c 3 -5 -1 -5 -7 1 c -9 9 -10 17 -2 33 c 32 61 32 61 17 61 c -8 0 -16 5 -18 12 c -3 7 -7 5 -11 -6 c -4 -9 -3 -15 2 -11 c 14 8 20 -7 10 -30 c -5 -13 -8 -15 -8 -5 c -1 12 -13 15 -57 13 c -31 0 -61 -6 -66 -11 c -7 -7 -6 -10 3 -9 c 35 1 112 -3 108 -7 c -4 -4 -73 -14 -129 -19 c -14 -1 -29 2 -33 8 c -5 6 -7 3 -3 -7 c 3 -10 1 -20 -4 -23 c -5 -3 -9 -18 -10 -33 c -3 -162 -5 -187 -21 -190 c -14 -2 -17 7 -17 60 c -1 35 -3 72 -5 83 c -3 11 -8 39 -12 63 c -8 48 -27 55 -63 21 c -13 -11 -31 -21 -42 -22 c -10 -1 -16 -5 -14 -9 c 3 -4 0 -8 -6 -8 c -6 0 -8 -5 -4 -12 c 4 -7 3 -8 -5 -4 c -6 4 -9 12 -6 17 c 9 14 -3 11 -24 -8 c -11 -9 -18 -20 -15 -25 c 3 -4 -3 -5 -12 -1 c -12 4 -15 3 -10 -5 c 4 -7 4 -12 -1 -13 c -23 -2 -43 -8 -68 -21 c -22 -12 -24 -16 -11 -21 c 9 -4 16 -2 16 3 c 0 6 5 10 12 10 c 9 0 9 -3 0 -12 c -14 -14 -52 -18 -52 -6 c 0 5 -5 6 -10 3 c -6 -4 -8 -10 -5 -15 c 3 -4 -5 -10 -16 -13 c -12 -3 -18 -10 -14 -16 c 4 -7 0 -8 -11 -4 c -13 5 -15 3 -9 -8 c 8 -12 6 -12 -8 0 c -15 12 -17 11 -17 -3 c 0 -9 -6 -16 -12 -16 c -9 0 -8 -4 2 -10 c 13 -8 13 -10 -2 -10 c -11 0 -15 -5 -12 -14 c 3 -8 1 -17 -4 -20 c -5 -3 -8 8 -6 27 l 3 32 l -18 -22 c -11 -13 -26 -23 -34 -23 c -23 0 -85 -28 -94 -43 c -8 -13 -115 -67 -133 -67 c -21 0 -59 -24 -53 -33 c 3 -6 2 -8 -3 -4 c -10 6 -147 -58 -142 -66 c 2 -3 -1 -9 -6 -14 c -5 -5 -6 -3 -2 5 c 4 6 3 12 -1 12 c -12 0 -170 -58 -194 -71 c -11 -5 -19 -6 -19 -2 c 1 14 62 51 170 104 c 58 29 108 57 112 63 c 4 6 8 8 8 4 c 0 -10 101 31 128 53 c 14 10 29 19 35 19 c 5 0 31 16 57 35 c 26 19 49 33 51 31 c 2 -3 5 9 6 25 c 1 16 -2 29 -8 29 c -6 0 -7 -6 -3 -12 c 5 -10 4 -10 -6 -1 c -14 13 -23 66 -10 58 c 5 -3 7 -12 3 -20 c -3 -11 -1 -13 10 -10 c 21 9 18 52 -4 58 c -11 3 -17 1 -14 -3 c 3 -5 1 -11 -5 -15 c -6 -4 -8 -10 -5 -15 c 3 -5 1 -11 -5 -15 c -5 -3 -10 -14 -10 -24 c 0 -22 -64 -84 -116 -111 c -38 -19 -126 -27 -121 -11 c 3 14 -25 51 -35 45 c -6 -4 -17 1 -24 11 c -11 15 -16 16 -29 5 c -10 -8 -15 -9 -15 -1 c 0 6 -5 11 -10 11 c -6 0 -9 -5 -8 -12 c 2 -6 -5 -14 -14 -16 c -11 -2 -18 2 -18 12 c 0 9 -3 16 -6 16 c -7 0 -34 -27 -37 -37 c -1 -4 -6 -7 -11 -5 c -4 1 -18 -4 -31 -12 c -17 -11 -25 -12 -34 -3 c -8 8 -11 6 -11 -7 c 0 -14 -3 -16 -13 -7 c -8 6 -17 8 -20 5 c -3 -4 -27 -8 -52 -10 c -25 -1 -52 -10 -61 -18 c -10 -11 -21 -13 -32 -7 c -9 4 -23 6 -30 4 c -31 -12 5 29 60 67 c 36 25 58 35 54 25 c -3 -9 -2 -13 4 -10 c 6 3 10 13 10 21 c 0 8 5 14 10 14 c 16 0 70 42 65 50 c -2 4 14 13 36 20 c 38 13 63 43 52 62 c -2 4 3 5 11 2 c 9 -3 16 -2 16 4 c 0 20 -29 21 -35 1 c -4 -10 -11 -19 -16 -19 c -6 0 -7 -4 -4 -10 c 3 -5 -3 -10 -15 -10 c -11 0 -23 -7 -26 -15 c -4 -8 -12 -15 -20 -15 c -8 0 -14 -8 -14 -17 c 0 -14 -2 -15 -9 -4 c -7 10 -13 11 -30 2 c -12 -7 -26 -9 -32 -5 c -6 4 -22 -6 -35 -22 c -17 -21 -22 -23 -17 -9 c 6 18 5 18 -10 6 c -9 -7 -15 -16 -13 -20 c 3 -4 -5 -8 -16 -8 c -11 -1 -27 -10 -35 -20 c -8 -10 -12 -12 -8 -5 c 10 19 -13 14 -35 -8 c -11 -11 -20 -18 -20 -15 c 0 2 -42 -20 -92 -50 c -55 -31 -92 -59 -90 -67 c 2 -7 0 -10 -4 -6 c -4 4 -14 2 -22 -5 c -13 -10 -14 -9 -8 2 c 6 10 3 9 -15 -2 c -48 -31 -135 -79 -187 -103 c -47 -21 -52 -27 -46 -47 c 6 -18 5 -20 -8 -10 c -8 7 -18 10 -22 6 c -3 -4 -16 -8 -28 -10 c -12 -2 -53 -19 -91 -38 c -73 -37 -107 -44 -107 -22 c 0 20 194 137 228 137 c 8 0 26 8 40 18 c 15 10 70 43 122 72 c 136 77 231 140 225 151 c -4 5 0 6 7 4 c 8 -3 23 3 35 14 c 14 13 23 16 25 9 c 3 -7 7 -5 11 6 c 4 9 3 15 -2 11 c -5 -3 -15 0 -23 7 c -16 16 -42 22 -34 9 c 6 -9 -16 -21 -37 -21 c -7 0 -6 4 3 10 c 9 6 10 10 3 10 c -6 0 -18 2 -26 5 c -10 4 -22 -12 -40 -53 c -28 -66 -62 -98 -113 -108 c -40 -7 -79 13 -96 51 c -6 14 -14 22 -19 20 c -4 -3 -11 0 -15 6 c -4 8 -3 9 4 5 c 18 -11 14 5 -8 42 c -11 18 -20 39 -20 47 c 0 8 -4 15 -9 15 c -5 0 -18 3 -28 6 c -15 5 -15 4 -3 -5 c 13 -9 13 -11 -2 -11 c -10 0 -18 6 -18 14 c 0 7 -12 16 -27 19 c -106 18 -228 37 -282 42 c -55 6 -63 5 -58 -8 c 3 -9 2 -30 -3 -46 c -5 -17 -10 -97 -12 -177 c -2 -80 -6 -148 -9 -150 c -20 -12 -29 39 -35 203 l -7 181 l -31 7 c -88 18 -195 33 -223 32 l -31 -2 l -7 -100 c -6 -97 -21 -165 -36 -165 c -11 0 -21 115 -17 203 l 3 78 l -66 28 c -37 15 -82 40 -101 55 c -42 31 -56 33 -60 6 c -2 -12 -7 -22 -13 -23 c -14 -3 -18 81 -6 123 c 5 19 15 58 21 85 c 7 28 16 61 20 75 c 25 73 23 84 -20 110 c -22 14 -40 28 -40 32 c 0 5 -4 8 -10 8 c -5 0 -14 -17 -20 -38 c -7 -20 -18 -46 -26 -57 c -28 -37 -35 1 -31 160 c 4 167 20 232 92 362 c 106 194 305 381 518 489 c 26 13 47 27 47 29 c 0 7 -10 5 -60 -14 z m 2700 -1547 c 0 -13 -4 -24 -9 -24 c -13 0 -24 37 -16 50 c 10 16 25 1 25 -26 z m -423 -19 c 0 -8 -6 -15 -14 -15 c -17 0 -17 17 0 23 c 6 3 12 6 13 6 c 0 1 1 -6 1 -14 z m -694 -109 c 4 -11 1 -13 -10 -9 c -12 5 -14 3 -8 -7 c 5 -9 4 -11 -4 -6 c -9 6 -9 11 0 22 c 14 17 16 17 22 0 z m 647 -6 c -8 -5 -19 -10 -25 -10 c -5 0 -3 5 5 10 c 8 5 20 10 25 10 c 6 0 3 -5 -5 -10 z m -55 -20 c -3 -5 -10 -10 -16 -10 c -5 0 -9 5 -9 10 c 0 6 7 10 16 10 c 8 0 12 -4 9 -10 z m -155 -53 c 0 -11 -69 -39 -80 -32 c -17 10 -11 24 8 20 c 10 -1 29 3 42 11 c 14 7 19 13 12 14 c -7 0 -10 5 -6 11 c 6 11 23 -6 24 -24 z m -970 -6 c 0 -9 -24 -21 -42 -21 c -6 0 -6 6 2 15 c 14 16 40 20 40 6 z m 827 -67 c -16 -9 -31 -13 -34 -10 c -3 3 5 10 18 15 c 37 15 47 12 16 -5 z m -932 -4 c 3 -5 17 -10 31 -10 c 13 0 24 -4 24 -9 c 0 -9 -138 -27 -146 -18 c -6 6 56 45 73 46 c 6 1 15 -3 18 -9 z m 745 -74 c 0 -2 -7 -6 -15 -10 c -8 -3 -15 -1 -15 4 c 0 6 7 10 15 10 c 8 0 15 -2 15 -4 z m -370 -46 c 0 -5 -8 -10 -17 -10 c -15 0 -16 2 -3 10 c 19 12 20 12 20 0 z m 259 6 c -10 -10 -162 -56 -182 -55 c -12 0 7 10 43 20 c 36 11 74 24 85 29 c 20 9 62 14 54 6 z m 414 -13 c -7 -2 -19 -2 -25 0 c -7 3 -2 5 12 5 c 14 0 19 -2 13 -5 z m -656 -59 c -3 -3 -12 -4 -19 -1 c -8 3 -5 6 6 6 c 11 1 17 -2 13 -5 z m -40 -10 c -3 -3 -12 -4 -19 -1 c -8 3 -5 6 6 6 c 11 1 17 -2 13 -5 z m -966 -34 c 23 -13 25 -33 5 -49 c -11 -10 -20 -10 -38 0 c -33 17 -33 17 -13 39 c 21 23 20 23 46 10 z m 174 -55 c 0 -13 -8 -21 -22 -23 c -19 -3 -23 1 -23 23 c 0 22 4 26 23 23 c 14 -2 22 -10 22 -23 z m 1095 -55 c -24 -19 -40 -25 -40 -15 c 0 5 51 34 60 34 c 3 0 -6 -8 -20 -19 z m -900 -351 c -10 -17 -66 -36 -77 -25 c -4 3 4 6 16 6 c 12 0 19 4 16 10 c -3 6 -17 10 -31 10 c -17 0 -23 -4 -18 -12 c 4 -7 3 -8 -5 -4 c -21 13 -1 26 42 27 l 42 2 l -35 7 c -35 7 -30 14 15 23 c 27 5 47 -20 35 -44 z m 80 11 c 0 -5 -2 -10 -4 -10 c -3 0 -8 5 -11 10 c -3 6 -1 10 4 10 c 6 0 11 -4 11 -10 z m -420 -14 c 0 -3 -4 -8 -10 -11 c -5 -3 -10 -1 -10 4 c 0 6 5 11 10 11 c 6 0 10 -2 10 -4 z m 139 -22 c 2 -2 -16 -4 -40 -4 c -31 0 -40 3 -29 10 c 13 8 57 4 69 -6 z m -112 -10 c -3 -3 -12 -4 -19 -1 c -8 3 -5 6 6 6 c 11 1 17 -2 13 -5 z" stroke-linecap="round"/>
</g>
		<g transform="matrix(0.1333 0 0 -0.1333 65.8547 -143.136)">
<path style="stroke: none; stroke-width: 1; stroke-dasharray: none; stroke-linecap: butt; stroke-dashoffset: 0; stroke-linejoin: miter; stroke-miterlimit: 4; is-custom-font: none; font-file-url: none; fill: rgb(0,0,0); fill-rule: nonzero; opacity: 1;" transform=" translate(-2994.1916, -3573.3541)" d="M 4083 4214 c -18 -14 -42 -30 -55 -37 c -13 -7 -70 -43 -128 -80 c -397 -256 -442 -283 -507 -302 c -52 -15 -57 -15 -72 0 c -15 15 -14 18 10 38 c 14 12 34 27 43 32 c 15 9 12 17 -26 78 c -26 41 -50 67 -61 67 c -16 0 -16 -2 -1 -37 c 9 -21 18 -44 21 -50 c 3 -8 -3 -13 -14 -13 c -10 0 -53 -18 -96 -40 c -42 -22 -81 -40 -87 -40 c -21 0 -9 39 22 69 l 32 31 l -30 0 c -32 1 -104 18 -209 50 c -38 12 -83 25 -100 30 c -16 4 -106 33 -200 63 c -237 77 -248 80 -293 67 c -20 -7 -46 -18 -57 -27 c -24 -18 -42 -4 168 -123 c 171 -97 397 -243 437 -282 c 24 -24 92 -104 116 -137 c 7 -8 10 -21 7 -28 c -4 -9 0 -11 11 -7 c 9 4 16 1 16 -6 c 0 -8 -9 -10 -24 -6 c -16 4 -34 -2 -57 -18 c -78 -56 -136 -95 -174 -116 c -92 -52 -234 -120 -252 -120 c -10 0 -23 -4 -28 -9 c -18 -15 -99 -31 -170 -33 c -38 -1 -145 6 -238 16 c -155 17 -169 17 -192 2 c -14 -9 -25 -20 -25 -25 c 0 -8 191 -89 255 -109 c 28 -8 30 -13 46 -100 c 9 -51 19 -95 23 -99 c 3 -4 20 0 38 8 c 27 13 35 27 63 115 l 32 99 l 54 8 c 129 18 377 123 620 261 c 65 36 121 66 126 66 c 10 0 23 -256 23 -437 c 0 -51 2 -93 5 -93 c 13 0 61 29 76 46 c 9 11 42 89 73 174 c 97 264 87 244 127 246 c 50 1 199 82 199 108 c 0 21 -45 100 -59 104 c -14 5 -13 -9 4 -50 c 5 -14 2 -18 -12 -18 c -10 0 -40 -13 -66 -30 c -26 -16 -52 -30 -57 -30 c -13 0 -13 25 -1 48 c 5 9 20 53 33 97 l 23 80 l 240 161 c 246 166 332 240 369 318 c 10 21 16 39 14 41 c -2 2 -18 -7 -35 -21 z" stroke-linecap="round"/>
</g>
		<g transform="matrix(0.1333 0 0 -0.1333 -115.4019 -222.608)">
<path style="stroke: none; stroke-width: 1; stroke-dasharray: none; stroke-linecap: butt; stroke-dashoffset: 0; stroke-linejoin: miter; stroke-miterlimit: 4; is-custom-font: none; font-file-url: none; fill: rgb(0,0,0); fill-rule: nonzero; opacity: 1;" transform=" translate(-1634.4917, -4169.5549)" d="M 1633 4178 c -25 -12 -31 -28 -10 -28 c 16 0 31 12 35 28 c 1 6 1 12 0 11 c -2 0 -13 -5 -25 -11 z" stroke-linecap="round"/>
</g>
		<g transform="matrix(0.1333 0 0 -0.1333 -90.6671 -221.3337)">
<path style="stroke: none; stroke-width: 1; stroke-dasharray: none; stroke-linecap: butt; stroke-dashoffset: 0; stroke-linejoin: miter; stroke-miterlimit: 4; is-custom-font: none; font-file-url: none; fill: rgb(0,0,0); fill-rule: nonzero; opacity: 1;" transform=" translate(-1820, -4160)" d="M 1810 4160 c 0 -5 5 -10 10 -10 c 6 0 10 5 10 10 c 0 6 -4 10 -10 10 c -5 0 -10 -4 -10 -10 z" stroke-linecap="round"/>
</g>
		<g transform="matrix(0.1333 0 0 -0.1333 -183.0312 -190.1332)">
<path style="stroke: none; stroke-width: 1; stroke-dasharray: none; stroke-linecap: butt; stroke-dashoffset: 0; stroke-linejoin: miter; stroke-miterlimit: 4; is-custom-font: none; font-file-url: none; fill: rgb(0,0,0); fill-rule: nonzero; opacity: 1;" transform=" translate(-1127.2717, -3925.9906)" d="M 1125 3939 c 5 -14 3 -19 -3 -15 c -17 11 -23 -11 -6 -24 c 12 -10 17 -11 27 -1 c 9 10 8 11 -8 5 c -16 -6 -18 -5 -9 7 c 21 27 24 49 8 49 c -11 0 -13 -6 -9 -21 z" stroke-linecap="round"/>
</g>
		<g transform="matrix(0.1333 0 0 -0.1333 -101.573 -192.0003)">
<path style="stroke: none; stroke-width: 1; stroke-dasharray: none; stroke-linecap: butt; stroke-dashoffset: 0; stroke-linejoin: miter; stroke-miterlimit: 4; is-custom-font: none; font-file-url: none; fill: rgb(0,0,0); fill-rule: nonzero; opacity: 1;" transform=" translate(-1738.2048, -3940)" d="M 1730 3940 c 0 -5 5 -10 11 -10 c 5 0 7 5 4 10 c -3 6 -8 10 -11 10 c -2 0 -4 -4 -4 -10 z" stroke-linecap="round"/>
</g>
		<g transform="matrix(0.1333 0 0 -0.1333 -190.6782 -167.8175)">
<path style="stroke: none; stroke-width: 1; stroke-dasharray: none; stroke-linecap: butt; stroke-dashoffset: 0; stroke-linejoin: miter; stroke-miterlimit: 4; is-custom-font: none; font-file-url: none; fill: rgb(0,0,0); fill-rule: nonzero; opacity: 1;" transform=" translate(-1069.9361, -3758.5971)" d="M 1083 3888 c -21 -25 -103 -185 -103 -199 c 0 -15 25 -40 59 -58 c 27 -15 28 -15 35 17 c 4 15 19 52 33 82 c 14 30 30 66 36 80 c 6 14 13 30 16 35 c 3 6 -2 4 -11 -3 c -13 -10 -15 -9 -10 14 c 3 20 2 25 -7 19 c -7 -4 -18 0 -25 10 c -10 14 -14 14 -23 3 z" stroke-linecap="round"/>
</g>
		<g transform="matrix(0.1333 0 0 -0.1333 -169.6717 -158.7747)">
<path style="stroke: none; stroke-width: 1; stroke-dasharray: none; stroke-linecap: butt; stroke-dashoffset: 0; stroke-linejoin: miter; stroke-miterlimit: 4; is-custom-font: none; font-file-url: none; fill: rgb(0,0,0); fill-rule: nonzero; opacity: 1;" transform=" translate(-1227.4905, -3690.7659)" d="M 1235 3861 c 3 -5 0 -13 -6 -17 c -22 -13 -122 -237 -113 -252 c 12 -19 122 -63 161 -65 c 17 0 29 -5 26 -11 c -3 -5 -1 -6 5 -2 c 6 4 9 13 5 21 c -3 9 1 15 8 15 c 8 0 5 6 -7 15 c -18 13 -18 14 6 8 c 25 -7 24 -6 -5 21 c -29 28 -29 28 -5 21 c 22 -7 23 -6 11 9 c -12 14 -12 16 3 10 c 26 -10 19 10 -18 50 c -33 34 -66 48 -66 27 c 0 -6 9 -8 20 -6 c 11 2 20 -2 20 -8 c 0 -7 -13 -12 -30 -12 c -27 0 -30 3 -30 32 c 0 17 9 52 20 77 c 19 45 18 76 -2 76 c -5 0 -7 -4 -3 -9 z" stroke-linecap="round"/>
</g>
		<g transform="matrix(0.1333 0 0 -0.1333 224.0961 -175.5312)">
<path style="stroke: none; stroke-width: 1; stroke-dasharray: none; stroke-linecap: butt; stroke-dashoffset: 0; stroke-linejoin: miter; stroke-miterlimit: 4; is-custom-font: none; font-file-url: none; fill: rgb(0,0,0); fill-rule: nonzero; opacity: 1;" transform=" translate(-4180.7229, -3816.4807)" d="M 4176 3817 c 3 -10 9 -15 12 -12 c 3 3 0 11 -7 18 c -10 9 -11 8 -5 -6 z" stroke-linecap="round"/>
</g>
		<g transform="matrix(0.1333 0 0 -0.1333 246.1314 -144.9799)">
<path style="stroke: none; stroke-width: 1; stroke-dasharray: none; stroke-linecap: butt; stroke-dashoffset: 0; stroke-linejoin: miter; stroke-miterlimit: 4; is-custom-font: none; font-file-url: none; fill: rgb(0,0,0); fill-rule: nonzero; opacity: 1;" transform=" translate(-4346.0145, -3587.3385)" d="M 4360 3623 c -28 -9 -95 -44 -117 -61 c -22 -16 -19 -17 86 -16 c 117 2 131 5 131 34 c 0 39 -49 60 -100 43 z" stroke-linecap="round"/>
</g>
		<g transform="matrix(0.1333 0 0 -0.1333 -178.0043 -115.2041)">
<path style="stroke: none; stroke-width: 1; stroke-dasharray: none; stroke-linecap: butt; stroke-dashoffset: 0; stroke-linejoin: miter; stroke-miterlimit: 4; is-custom-font: none; font-file-url: none; fill: rgb(0,0,0); fill-rule: nonzero; opacity: 1;" transform=" translate(-1165.001, -3363.9843)" d="M 1074 3491 c -58 -199 -58 -198 13 -241 c 57 -35 129 -68 149 -69 c 7 -1 14 22 17 52 c 3 28 15 92 25 140 l 20 88 l -22 9 c -11 5 -58 24 -103 43 l -82 34 l -17 -56 z" stroke-linecap="round"/>
</g>
		<g transform="matrix(0.1333 0 0 -0.1333 -67.8717 -117.0835)">
<path style="stroke: none; stroke-width: 1; stroke-dasharray: none; stroke-linecap: butt; stroke-dashoffset: 0; stroke-linejoin: miter; stroke-miterlimit: 4; is-custom-font: none; font-file-url: none; fill: rgb(0,0,0); fill-rule: nonzero; opacity: 1;" transform=" translate(-1990.9915, -3378.1073)" d="M 1888 3433 c 12 -17 48 -54 81 -82 c 54 -47 62 -51 107 -50 c 27 1 38 4 24 6 c -26 5 -90 46 -160 103 c -65 53 -77 58 -52 23 z" stroke-linecap="round"/>
</g>
		<g transform="matrix(0.1333 0 0 -0.1333 -139.2021 -105.6761)">
<path style="stroke: none; stroke-width: 1; stroke-dasharray: none; stroke-linecap: butt; stroke-dashoffset: 0; stroke-linejoin: miter; stroke-miterlimit: 4; is-custom-font: none; font-file-url: none; fill: rgb(0,0,0); fill-rule: nonzero; opacity: 1;" transform=" translate(-1456.0251, -3292.5323)" d="M 1332 3377 c -12 -39 -24 -92 -27 -117 c -4 -25 -8 -55 -11 -67 c -4 -21 -1 -23 38 -23 c 24 0 88 -7 142 -15 c 55 -8 104 -15 111 -15 c 6 0 17 29 23 64 c 15 78 15 106 1 106 c -5 0 -8 -4 -5 -8 c 6 -10 -94 -10 -109 0 c -6 3 -21 0 -35 -7 c -22 -12 -25 -11 -37 12 c -9 17 -10 30 -3 38 c 6 8 5 16 -3 25 c -10 10 -8 12 7 6 c 13 -5 17 -2 13 9 c -4 8 -1 17 4 21 c 12 7 -23 27 -63 37 c -24 6 -26 3 -46 -66 z" stroke-linecap="round"/>
</g>
		<g transform="matrix(0.1333 0 0 -0.1333 -118.0107 -116.7567)">
<path style="stroke: none; stroke-width: 1; stroke-dasharray: none; stroke-linecap: butt; stroke-dashoffset: 0; stroke-linejoin: miter; stroke-miterlimit: 4; is-custom-font: none; font-file-url: none; fill: rgb(0,0,0); fill-rule: nonzero; opacity: 1;" transform=" translate(-1614.9262, -3375.6718)" d="M 1599 3373 c -13 -15 -12 -15 11 -3 c 34 17 36 20 18 20 c -9 0 -22 -7 -29 -17 z" stroke-linecap="round"/>
</g>
		<g transform="matrix(0.1333 0 0 -0.1333 181.8022 -114.5706)">
<path style="stroke: none; stroke-width: 1; stroke-dasharray: none; stroke-linecap: butt; stroke-dashoffset: 0; stroke-linejoin: miter; stroke-miterlimit: 4; is-custom-font: none; font-file-url: none; fill: rgb(0,0,0); fill-rule: nonzero; opacity: 1;" transform=" translate(-3863.5193, -3359.2771)" d="M 3857 3359 c 7 -7 15 -10 18 -7 c 3 3 -2 9 -12 12 c -14 6 -15 5 -6 -5 z" stroke-linecap="round"/>
</g>
		<g transform="matrix(0.1333 0 0 -0.1333 -95.0165 -103.5725)">
<path style="stroke: none; stroke-width: 1; stroke-dasharray: none; stroke-linecap: butt; stroke-dashoffset: 0; stroke-linejoin: miter; stroke-miterlimit: 4; is-custom-font: none; font-file-url: none; fill: rgb(0,0,0); fill-rule: nonzero; opacity: 1;" transform=" translate(-1787.3792, -3276.7877)" d="M 1782 3287 c -6 -7 -7 -18 -3 -26 c 6 -9 11 -10 15 -2 c 4 6 2 11 -5 11 c -8 0 -8 4 1 15 c 7 8 10 15 7 15 c -2 0 -9 -6 -15 -13 z" stroke-linecap="round"/>
</g>
		<g transform="matrix(0.1333 0 0 -0.1333 -101.9778 -92.784)">
<path style="stroke: none; stroke-width: 1; stroke-dasharray: none; stroke-linecap: butt; stroke-dashoffset: 0; stroke-linejoin: miter; stroke-miterlimit: 4; is-custom-font: none; font-file-url: none; fill: rgb(0,0,0); fill-rule: nonzero; opacity: 1;" transform=" translate(-1735.1866, -3195.862)" d="M 1692 3261 c -7 -4 -15 -17 -17 -27 c -2 -10 -4 -19 -5 -19 c -1 0 -3 -9 -5 -20 c -1 -11 -5 -27 -9 -36 c -6 -13 6 -18 69 -29 c 41 -7 78 -10 82 -6 c 10 10 12 36 3 36 c -9 0 -24 49 -21 70 c 1 12 0 12 -7 1 c -12 -16 -27 3 -16 21 c 4 6 3 8 -4 4 c -6 -3 -13 -2 -17 4 c -7 12 -35 13 -53 1 z" stroke-linecap="round"/>
</g>
		<g transform="matrix(0.1333 0 0 -0.1333 212.0813 -99.9686)">
<path style="stroke: none; stroke-width: 1; stroke-dasharray: none; stroke-linecap: butt; stroke-dashoffset: 0; stroke-linejoin: miter; stroke-miterlimit: 4; is-custom-font: none; font-file-url: none; fill: rgb(0,0,0); fill-rule: nonzero; opacity: 1;" transform=" translate(-4090.6195, -3249.7594)" d="M 4105 3263 c -11 -3 -29 -12 -40 -20 c -18 -14 -18 -15 -2 -9 c 11 3 30 9 43 12 c 13 3 24 10 24 15 c 0 5 -1 8 -2 8 c -2 -1 -12 -4 -23 -6 z" stroke-linecap="round"/>
</g>
		<g transform="matrix(0.1333 0 0 -0.1333 65.738 -87.5975)">
<path style="stroke: none; stroke-width: 1; stroke-dasharray: none; stroke-linecap: butt; stroke-dashoffset: 0; stroke-linejoin: miter; stroke-miterlimit: 4; is-custom-font: none; font-file-url: none; fill: rgb(0,0,0); fill-rule: nonzero; opacity: 1;" transform=" translate(-2993.0568, -3156.9602)" d="M 3043 3210 c -8 -22 -16 -28 -32 -25 c -12 2 -21 -1 -21 -6 c 0 -6 -4 -8 -9 -5 c -5 3 -15 -2 -22 -11 c -12 -15 -12 -16 1 -8 c 24 15 39 14 33 -1 c -3 -8 -9 -11 -14 -8 c -6 3 -17 0 -25 -7 c -8 -7 -14 -8 -13 -3 c 4 21 -2 23 -21 7 c -14 -13 -17 -20 -8 -30 c 7 -9 7 -17 -1 -27 c -21 -25 30 -7 71 25 c 20 16 41 29 46 29 c 5 0 15 7 22 15 c 7 8 16 12 21 9 c 5 -3 9 13 9 35 c 0 49 -20 55 -37 11 z" stroke-linecap="round"/>
</g>
		<g transform="matrix(0.1333 0 0 -0.1333 200.4688 -95.9039)">
<path style="stroke: none; stroke-width: 1; stroke-dasharray: none; stroke-linecap: butt; stroke-dashoffset: 0; stroke-linejoin: miter; stroke-miterlimit: 4; is-custom-font: none; font-file-url: none; fill: rgb(0,0,0); fill-rule: nonzero; opacity: 1;" transform=" translate(-4003.5193, -3219.2771)" d="M 3997 3219 c 7 -7 15 -10 18 -7 c 3 3 -2 9 -12 12 c -14 6 -15 5 -6 -5 z" stroke-linecap="round"/>
</g>
		<g transform="matrix(0.1333 0 0 -0.1333 158.6408 -85.9208)">
<path style="stroke: none; stroke-width: 1; stroke-dasharray: none; stroke-linecap: butt; stroke-dashoffset: 0; stroke-linejoin: miter; stroke-miterlimit: 4; is-custom-font: none; font-file-url: none; fill: rgb(0,0,0); fill-rule: nonzero; opacity: 1;" transform=" translate(-3689.8085, -3144.4023)" d="M 3687 3153 c -4 -3 -7 -11 -7 -17 c 0 -6 5 -5 12 2 c 6 6 9 14 7 17 c -3 3 -9 2 -12 -2 z" stroke-linecap="round"/>
</g>
		<g transform="matrix(0.1333 0 0 -0.1333 32.3993 -83.2677)">
<path style="stroke: none; stroke-width: 1; stroke-dasharray: none; stroke-linecap: butt; stroke-dashoffset: 0; stroke-linejoin: miter; stroke-miterlimit: 4; is-custom-font: none; font-file-url: none; fill: rgb(0,0,0); fill-rule: nonzero; opacity: 1;" transform=" translate(-2742.9992, -3124.5048)" d="M 2728 3122 c 4 -10 7 -12 10 -4 c 2 7 9 9 15 5 c 7 -3 8 -2 4 2 c -14 16 -36 14 -29 -3 z" stroke-linecap="round"/>
</g>
		<g transform="matrix(0.1333 0 0 -0.1333 9.0422 -70.2535)">
<path style="stroke: none; stroke-width: 1; stroke-dasharray: none; stroke-linecap: butt; stroke-dashoffset: 0; stroke-linejoin: miter; stroke-miterlimit: 4; is-custom-font: none; font-file-url: none; fill: rgb(0,0,0); fill-rule: nonzero; opacity: 1;" transform=" translate(-2567.8191, -3026.898)" d="M 2560 3031 c 0 -6 4 -13 10 -16 c 6 -3 7 1 4 9 c -7 18 -14 21 -14 7 z" stroke-linecap="round"/>
</g>
		<g transform="matrix(0.1333 0 0 -0.1333 -3.761 -69.3337)">
<path style="stroke: none; stroke-width: 1; stroke-dasharray: none; stroke-linecap: butt; stroke-dashoffset: 0; stroke-linejoin: miter; stroke-miterlimit: 4; is-custom-font: none; font-file-url: none; fill: rgb(0,0,0); fill-rule: nonzero; opacity: 1;" transform=" translate(-2471.7952, -3020)" d="M 2465 3020 c 3 -5 8 -10 11 -10 c 2 0 4 5 4 10 c 0 6 -5 10 -11 10 c -5 0 -7 -4 -4 -10 z" stroke-linecap="round"/>
</g>
		<g transform="matrix(0.1333 0 0 -0.1333 5.3622 -66.6671)">
<path style="stroke: none; stroke-width: 1; stroke-dasharray: none; stroke-linecap: butt; stroke-dashoffset: 0; stroke-linejoin: miter; stroke-miterlimit: 4; is-custom-font: none; font-file-url: none; fill: rgb(0,0,0); fill-rule: nonzero; opacity: 1;" transform=" translate(-2540.2208, -3000)" d="M 2530 3000 c -8 -5 -10 -10 -5 -10 c 6 0 17 5 25 10 c 8 5 11 10 5 10 c -5 0 -17 -5 -25 -10 z" stroke-linecap="round"/>
</g>
		<g transform="matrix(0.1333 0 0 -0.1333 265.0572 -57.9332)">
<path style="stroke: none; stroke-width: 1; stroke-dasharray: none; stroke-linecap: butt; stroke-dashoffset: 0; stroke-linejoin: miter; stroke-miterlimit: 4; is-custom-font: none; font-file-url: none; fill: rgb(0,0,0); fill-rule: nonzero; opacity: 1;" transform=" translate(-4487.9341, -2934.4966)" d="M 4476 2943 c -11 -11 -6 -21 9 -19 c 22 3 28 13 11 19 c -8 3 -17 3 -20 0 z" stroke-linecap="round"/>
</g>
		<g transform="matrix(0.1333 0 0 -0.1333 43.9994 -57.3336)">
<path style="stroke: none; stroke-width: 1; stroke-dasharray: none; stroke-linecap: butt; stroke-dashoffset: 0; stroke-linejoin: miter; stroke-miterlimit: 4; is-custom-font: none; font-file-url: none; fill: rgb(0,0,0); fill-rule: nonzero; opacity: 1;" transform=" translate(-2830, -2930)" d="M 2815 2930 c 3 -5 13 -10 21 -10 c 8 0 12 5 9 10 c -3 6 -13 10 -21 10 c -8 0 -12 -4 -9 -10 z" stroke-linecap="round"/>
</g>
		<g transform="matrix(0.1333 0 0 -0.1333 151.3328 -26.973)">
<path style="stroke: none; stroke-width: 1; stroke-dasharray: none; stroke-linecap: butt; stroke-dashoffset: 0; stroke-linejoin: miter; stroke-miterlimit: 4; is-custom-font: none; font-file-url: none; fill: rgb(0,0,0); fill-rule: nonzero; opacity: 1;" transform=" translate(-3635, -2702.2952)" d="M 3620 2700 c 0 -5 7 -7 15 -4 c 8 4 15 8 15 10 c 0 2 -7 4 -15 4 c -8 0 -15 -4 -15 -10 z" stroke-linecap="round"/>
</g>
		<g transform="matrix(0.1333 0 0 -0.1333 8.8211 76.5692)">
<path style="stroke: none; stroke-width: 1; stroke-dasharray: none; stroke-linecap: butt; stroke-dashoffset: 0; stroke-linejoin: miter; stroke-miterlimit: 4; is-custom-font: none; font-file-url: none; fill: rgb(0,0,0); fill-rule: nonzero; opacity: 1;" transform=" translate(-2566.5686, -1925.5629)" d="M 3845 2582 c -38 -10 -103 -32 -142 -49 c -84 -36 -258 -140 -305 -183 c -18 -17 -41 -33 -50 -36 c -10 -3 -18 -11 -18 -17 c 0 -8 -3 -8 -9 1 c -9 15 -76 -34 -176 -129 c -119 -112 -325 -275 -433 -343 c -63 -39 -227 -120 -315 -155 c -211 -84 -542 -99 -767 -34 c -329 94 -429 136 -591 248 c -85 58 -106 69 -91 47 c 23 -32 72 -82 152 -157 l 54 -50 l -29 -3 c -16 -2 -50 -2 -76 0 c -34 2 -45 0 -42 -9 c 3 -9 -4 -13 -21 -13 c -14 0 -26 -5 -26 -11 c 0 -5 -6 -7 -12 -3 c -10 5 -10 4 -1 -6 c 9 -10 7 -17 -10 -32 c -17 -15 -18 -18 -5 -14 c 10 3 18 1 18 -4 c 0 -15 296 -13 319 2 c 16 9 30 4 87 -32 c 98 -62 386 -187 588 -256 c 173 -60 436 -108 451 -84 c 3 5 27 16 53 26 c 104 38 214 95 313 161 c 164 110 312 213 339 238 c 59 53 281 215 328 239 c 153 78 245 102 427 112 c 114 6 121 7 142 33 l 22 26 l -42 19 c -35 17 -64 20 -182 20 c -131 0 -146 -2 -235 -32 c -86 -28 -214 -95 -248 -129 c -7 -7 -19 -13 -27 -13 c -7 0 -15 -3 -17 -7 c -1 -5 -19 -20 -38 -34 c -19 -15 -82 -68 -140 -119 c -133 -117 -273 -222 -371 -277 c -42 -24 -80 -43 -84 -43 c -16 0 9 20 50 39 c 25 12 44 25 42 29 c -9 14 13 52 30 52 c 14 0 15 2 5 9 c -11 6 -7 13 15 30 c 70 54 161 143 226 221 c 40 46 80 92 89 101 c 31 32 50 68 42 80 c -5 9 -2 10 10 6 c 14 -6 15 -3 6 13 c -11 21 -12 20 38 24 c 18 2 31 26 24 44 c -4 11 -1 14 11 9 c 11 -4 14 -2 10 9 c -6 17 75 97 92 90 c 6 -2 35 11 65 30 c 178 112 407 136 600 62 c 30 -12 68 -30 83 -41 c 16 -10 29 -18 31 -16 c 21 29 106 251 106 277 c 0 5 -19 18 -42 27 c -64 27 -233 30 -323 7 z m -642 -477 c -3 -9 -8 -14 -10 -11 c -3 3 -2 9 2 15 c 9 16 15 13 8 -4 z" stroke-linecap="round"/>
</g>
		<g transform="matrix(0.1333 0 0 -0.1333 263.6561 -2.1663)">
<path style="stroke: none; stroke-width: 1; stroke-dasharray: none; stroke-linecap: butt; stroke-dashoffset: 0; stroke-linejoin: miter; stroke-miterlimit: 4; is-custom-font: none; font-file-url: none; fill: rgb(0,0,0); fill-rule: nonzero; opacity: 1;" transform=" translate(-4477.4263, -2516.2367)" d="M 4457 2553 c -3 -3 3 -24 15 -47 c 12 -23 23 -35 26 -28 c 2 8 -1 19 -7 25 c -6 6 -11 19 -11 28 c 0 19 -14 32 -23 22 z" stroke-linecap="round"/>
</g>
		<g transform="matrix(0.1333 0 0 -0.1333 267.5164 19.0863)">
<path style="stroke: none; stroke-width: 1; stroke-dasharray: none; stroke-linecap: butt; stroke-dashoffset: 0; stroke-linejoin: miter; stroke-miterlimit: 4; is-custom-font: none; font-file-url: none; fill: rgb(0,0,0); fill-rule: nonzero; opacity: 1;" transform=" translate(-4506.3768, -2356.8374)" d="M 4495 2399 c -11 -43 -2 -104 15 -104 c 11 0 14 10 12 43 c -2 24 -7 53 -12 65 c -8 22 -8 21 -15 -4 z" stroke-linecap="round"/>
</g>
		<g transform="matrix(0.1333 0 0 -0.1333 72.7529 22.733)">
<path style="stroke: none; stroke-width: 1; stroke-dasharray: none; stroke-linecap: butt; stroke-dashoffset: 0; stroke-linejoin: miter; stroke-miterlimit: 4; is-custom-font: none; font-file-url: none; fill: rgb(0,0,0); fill-rule: nonzero; opacity: 1;" transform=" translate(-3045.6508, -2329.5)" d="M 3040 2330 c -9 -6 -10 -10 -3 -10 c 6 0 15 5 18 10 c 8 12 4 12 -15 0 z" stroke-linecap="round"/>
</g>
		<g transform="matrix(0.1333 0 0 -0.1333 50.793 31.6741)">
<path style="stroke: none; stroke-width: 1; stroke-dasharray: none; stroke-linecap: butt; stroke-dashoffset: 0; stroke-linejoin: miter; stroke-miterlimit: 4; is-custom-font: none; font-file-url: none; fill: rgb(0,0,0); fill-rule: nonzero; opacity: 1;" transform=" translate(-2880.949, -2262.4399)" d="M 2877 2265 c -4 -8 -3 -16 1 -19 c 4 -3 9 4 9 15 c 2 23 -3 25 -10 4 z" stroke-linecap="round"/>
</g>
		<g transform="matrix(0.1333 0 0 -0.1333 245.5502 40.4458)">
<path style="stroke: none; stroke-width: 1; stroke-dasharray: none; stroke-linecap: butt; stroke-dashoffset: 0; stroke-linejoin: miter; stroke-miterlimit: 4; is-custom-font: none; font-file-url: none; fill: rgb(0,0,0); fill-rule: nonzero; opacity: 1;" transform=" translate(-4341.6437, -2196.6389)" d="M 4380 2257 c 0 -10 -4 -16 -9 -12 c -5 3 -17 -8 -27 -24 c -10 -16 -27 -34 -38 -41 c -12 -6 -14 -9 -6 -6 c 10 2 16 -3 17 -14 c 2 -19 -33 -34 -41 -19 c -2 5 -3 4 -1 -3 c 1 -7 9 -11 16 -9 c 8 2 30 4 49 5 c 35 1 49 22 25 38 c -6 5 -3 8 7 8 c 9 0 19 4 22 9 c 4 5 -4 7 -16 3 c -20 -5 -21 -3 -10 11 c 8 9 20 13 28 10 c 18 -7 18 -2 -1 33 c -11 21 -15 24 -15 11 z m -6 -26 c 3 -5 -1 -11 -9 -14 c -9 -4 -12 -1 -8 9 c 6 16 10 17 17 5 z m -14 -82 c 0 -6 -4 -7 -10 -4 c -5 3 -10 11 -10 16 c 0 6 5 7 10 4 c 6 -3 10 -11 10 -16 z" stroke-linecap="round"/>
</g>
		<g transform="matrix(0.1333 0 0 -0.1333 257.0916 35.0798)">
<path style="stroke: none; stroke-width: 1; stroke-dasharray: none; stroke-linecap: butt; stroke-dashoffset: 0; stroke-linejoin: miter; stroke-miterlimit: 4; is-custom-font: none; font-file-url: none; fill: rgb(0,0,0); fill-rule: nonzero; opacity: 1;" transform=" translate(-4428.1891, -2236.898)" d="M 4420 2234 c 0 -8 5 -12 10 -9 c 6 4 8 11 5 16 c -9 14 -15 11 -15 -7 z" stroke-linecap="round"/>
</g>
		<g transform="matrix(0.1333 0 0 -0.1333 44.343 37.0574)">
<path style="stroke: none; stroke-width: 1; stroke-dasharray: none; stroke-linecap: butt; stroke-dashoffset: 0; stroke-linejoin: miter; stroke-miterlimit: 4; is-custom-font: none; font-file-url: none; fill: rgb(0,0,0); fill-rule: nonzero; opacity: 1;" transform=" translate(-2832.5755, -2222.0659)" d="M 2820 2231 c 0 -10 19 -25 25 -20 c 1 2 -3 10 -11 17 c -8 7 -14 8 -14 3 z" stroke-linecap="round"/>
</g>
		<g transform="matrix(0.1333 0 0 -0.1333 -7.7724 75.0496)">
<path style="stroke: none; stroke-width: 1; stroke-dasharray: none; stroke-linecap: butt; stroke-dashoffset: 0; stroke-linejoin: miter; stroke-miterlimit: 4; is-custom-font: none; font-file-url: none; fill: rgb(0,0,0); fill-rule: nonzero; opacity: 1;" transform=" translate(-2441.861, -1937.0636)" d="M 3015 2183 c -17 -9 -32 -19 -35 -22 c -3 -4 -22 -17 -43 -30 c -20 -12 -41 -31 -47 -40 c -5 -10 -27 -23 -49 -30 c -23 -6 -40 -17 -38 -24 c 1 -7 -7 -11 -21 -10 c -13 2 -21 -1 -17 -7 c 3 -6 3 -10 -2 -11 c -41 -4 -90 -39 -79 -57 c 6 -11 -43 -11 -59 0 c -6 3 -21 0 -35 -9 c -14 -8 -17 -12 -7 -9 c 19 6 47 -2 47 -14 c 0 -16 -32 -19 -54 -5 c -21 14 -25 14 -36 0 c -7 -8 -20 -15 -29 -15 c -14 0 -14 2 -1 10 c 9 6 10 10 3 10 c -6 0 -14 -4 -17 -9 c -3 -4 -20 -12 -38 -16 c -29 -6 -31 -8 -13 -15 c 13 -6 5 -7 -24 -3 c -27 4 -42 2 -38 -3 c 9 -15 -50 -37 -84 -32 c -16 3 -29 1 -29 -4 c 0 -5 -11 -6 -25 -4 c -32 6 -81 -8 -78 -22 c 2 -8 -4 -9 -21 -1 c -16 7 -34 8 -59 1 c -20 -6 -48 -9 -62 -8 c -14 2 -25 0 -25 -3 c 0 -14 -58 -31 -108 -31 c -52 0 -54 -1 -50 -25 c 4 -16 0 -25 -11 -28 c -9 -3 -2 -5 15 -6 c 17 0 48 -8 67 -16 c 46 -19 189 -20 277 -1 c 118 25 289 86 393 140 c 126 65 329 201 417 278 c 68 60 77 103 15 71 z m -292 -218 c -3 -9 -8 -14 -10 -11 c -3 3 -2 9 2 15 c 9 16 15 13 8 -4 z m -169 -69 c -21 -15 -30 -14 -19 3 c 3 6 14 11 23 11 c 13 0 13 -2 -4 -14 z m -419 -96 c 3 -5 -3 -10 -15 -10 c -12 0 -18 5 -15 10 c 3 6 10 10 15 10 c 5 0 12 -4 15 -10 z m -220 -50 c -4 -6 -17 -9 -30 -7 c -40 5 -41 17 -1 17 c 23 0 35 -4 31 -10 z" stroke-linecap="round"/>
</g>
		<g transform="matrix(0.1333 0 0 -0.1333 255.5047 41.7995)">
<path style="stroke: none; stroke-width: 1; stroke-dasharray: none; stroke-linecap: butt; stroke-dashoffset: 0; stroke-linejoin: miter; stroke-miterlimit: 4; is-custom-font: none; font-file-url: none; fill: rgb(0,0,0); fill-rule: nonzero; opacity: 1;" transform=" translate(-4416.2877, -2186.5)" d="M 4411 2187 c -8 -10 -7 -14 2 -14 c 8 0 14 6 14 14 c 0 7 -1 13 -2 13 c -2 0 -8 -6 -14 -13 z" stroke-linecap="round"/>
</g>
		<g transform="matrix(0.1333 0 0 -0.1333 26.9925 43.3884)">
<path style="stroke: none; stroke-width: 1; stroke-dasharray: none; stroke-linecap: butt; stroke-dashoffset: 0; stroke-linejoin: miter; stroke-miterlimit: 4; is-custom-font: none; font-file-url: none; fill: rgb(0,0,0); fill-rule: nonzero; opacity: 1;" transform=" translate(-2702.458, -2174.5832)" d="M 2652 2183 c -13 -5 -7 -23 9 -23 c 6 0 7 5 4 10 c -8 13 16 13 50 0 c 19 -7 24 -7 19 2 c -5 8 -2 9 9 5 c 10 -3 17 -2 17 3 c 0 10 -85 13 -108 3 z" stroke-linecap="round"/>
</g>
		<g transform="matrix(0.1333 0 0 -0.1333 27.4478 45.9742)">
<path style="stroke: none; stroke-width: 1; stroke-dasharray: none; stroke-linecap: butt; stroke-dashoffset: 0; stroke-linejoin: miter; stroke-miterlimit: 4; is-custom-font: none; font-file-url: none; fill: rgb(0,0,0); fill-rule: nonzero; opacity: 1;" transform=" translate(-2705.8618, -2155.1924)" d="M 2698 2153 c 7 -3 16 -2 19 1 c 4 3 -2 6 -13 5 c -11 0 -14 -3 -6 -6 z" stroke-linecap="round"/>
</g>
		<g transform="matrix(0.1333 0 0 -0.1333 21.7326 47.9997)">
<path style="stroke: none; stroke-width: 1; stroke-dasharray: none; stroke-linecap: butt; stroke-dashoffset: 0; stroke-linejoin: miter; stroke-miterlimit: 4; is-custom-font: none; font-file-url: none; fill: rgb(0,0,0); fill-rule: nonzero; opacity: 1;" transform=" translate(-2662.998, -2140)" d="M 2650 2140 c 0 -5 4 -10 9 -10 c 6 0 13 5 16 10 c 3 6 -1 10 -9 10 c -9 0 -16 -4 -16 -10 z" stroke-linecap="round"/>
</g>
		<g transform="matrix(0.1333 0 0 -0.1333 -3.2452 49.869)">
<path style="stroke: none; stroke-width: 1; stroke-dasharray: none; stroke-linecap: butt; stroke-dashoffset: 0; stroke-linejoin: miter; stroke-miterlimit: 4; is-custom-font: none; font-file-url: none; fill: rgb(0,0,0); fill-rule: nonzero; opacity: 1;" transform=" translate(-2475.6691, -2125.9797)" d="M 2460 2130 c 14 -4 19 -8 11 -9 c -8 -1 -12 -3 -10 -6 c 3 -2 16 -1 29 2 c 22 6 23 7 4 14 c -10 4 -28 7 -39 7 c -16 0 -15 -2 5 -8 z" stroke-linecap="round"/>
</g>
		<g transform="matrix(0.1333 0 0 -0.1333 -11.2189 52.6409)">
<path style="stroke: none; stroke-width: 1; stroke-dasharray: none; stroke-linecap: butt; stroke-dashoffset: 0; stroke-linejoin: miter; stroke-miterlimit: 4; is-custom-font: none; font-file-url: none; fill: rgb(0,0,0); fill-rule: nonzero; opacity: 1;" transform=" translate(-2415.8618, -2105.1924)" d="M 2408 2103 c 7 -3 16 -2 19 1 c 4 3 -2 6 -13 5 c -11 0 -14 -3 -6 -6 z" stroke-linecap="round"/>
</g>
		<g transform="matrix(0.1333 0 0 -0.1333 5.6956 53.3758)">
<path style="stroke: none; stroke-width: 1; stroke-dasharray: none; stroke-linecap: butt; stroke-dashoffset: 0; stroke-linejoin: miter; stroke-miterlimit: 4; is-custom-font: none; font-file-url: none; fill: rgb(0,0,0); fill-rule: nonzero; opacity: 1;" transform=" translate(-2542.7283, -2099.68)" d="M 2504 2098 c 14 -8 72 -5 81 4 c 2 2 -19 4 -46 4 c -35 0 -45 -2 -35 -8 z" stroke-linecap="round"/>
</g>
		<g transform="matrix(0.1333 0 0 -0.1333 -1.7474 55.7089)">
<path style="stroke: none; stroke-width: 1; stroke-dasharray: none; stroke-linecap: butt; stroke-dashoffset: 0; stroke-linejoin: miter; stroke-miterlimit: 4; is-custom-font: none; font-file-url: none; fill: rgb(0,0,0); fill-rule: nonzero; opacity: 1;" transform=" translate(-2486.898, -2082.1809)" d="M 2475 2080 c -3 -6 1 -7 9 -4 c 18 7 21 14 7 14 c -6 0 -13 -4 -16 -10 z" stroke-linecap="round"/>
</g>
		<g transform="matrix(0.1333 0 0 -0.1333 -37.8855 64.6409)">
<path style="stroke: none; stroke-width: 1; stroke-dasharray: none; stroke-linecap: butt; stroke-dashoffset: 0; stroke-linejoin: miter; stroke-miterlimit: 4; is-custom-font: none; font-file-url: none; fill: rgb(0,0,0); fill-rule: nonzero; opacity: 1;" transform=" translate(-2215.8618, -2015.1924)" d="M 2208 2013 c 7 -3 16 -2 19 1 c 4 3 -2 6 -13 5 c -11 0 -14 -3 -6 -6 z" stroke-linecap="round"/>
</g>
		<g transform="matrix(0.1333 0 0 -0.1333 13.3329 77.3329)">
<path style="stroke: none; stroke-width: 1; stroke-dasharray: none; stroke-linecap: butt; stroke-dashoffset: 0; stroke-linejoin: miter; stroke-miterlimit: 4; is-custom-font: none; font-file-url: none; fill: rgb(0,0,0); fill-rule: nonzero; opacity: 1;" transform=" translate(-2600, -1920)" d="M 2590 1920 c 0 -5 5 -10 10 -10 c 6 0 10 5 10 10 c 0 6 -4 10 -10 10 c -5 0 -10 -4 -10 -10 z" stroke-linecap="round"/>
</g>
		<g transform="matrix(0.1333 0 0 -0.1333 103.4972 121.7565)">
<path style="stroke: none; stroke-width: 1; stroke-dasharray: none; stroke-linecap: butt; stroke-dashoffset: 0; stroke-linejoin: miter; stroke-miterlimit: 4; is-custom-font: none; font-file-url: none; fill: rgb(0,0,0); fill-rule: nonzero; opacity: 1;" transform=" translate(-3276.3827, -1586.7403)" d="M 3654 1920 c -181 -36 -353 -135 -538 -311 c -189 -179 -274 -246 -429 -343 c -16 -10 -27 -19 -25 -21 c 8 -8 170 17 268 42 c 229 57 444 162 655 322 c 72 54 263 246 288 290 l 18 31 l -98 -1 c -54 -1 -116 -5 -139 -9 z" stroke-linecap="round"/>
</g>
		<g transform="matrix(0.1333 0 0 -0.1333 -149.2701 86.4707)">
<path style="stroke: none; stroke-width: 1; stroke-dasharray: none; stroke-linecap: butt; stroke-dashoffset: 0; stroke-linejoin: miter; stroke-miterlimit: 4; is-custom-font: none; font-file-url: none; fill: rgb(0,0,0); fill-rule: nonzero; opacity: 1;" transform=" translate(-1380.514, -1851.4531)" d="M 1224 1908 c -5 -8 -2 -9 9 -5 c 10 3 17 2 17 -2 c 0 -5 -6 -11 -12 -14 c -31 -11 184 -92 269 -101 c 26 -3 39 -3 29 0 c -15 5 -16 8 -5 15 c 10 6 2 9 -23 9 c -20 0 -41 6 -45 14 c -8 13 -45 36 -58 36 c -3 0 -4 -4 -1 -8 c 6 -10 -79 10 -90 21 c -4 4 -19 7 -33 7 c -21 0 -23 2 -11 10 c 13 9 13 11 0 20 c -20 13 -37 12 -46 -2 z" stroke-linecap="round"/>
</g>
		<g transform="matrix(0.1333 0 0 -0.1333 -21.8855 85.9742)">
<path style="stroke: none; stroke-width: 1; stroke-dasharray: none; stroke-linecap: butt; stroke-dashoffset: 0; stroke-linejoin: miter; stroke-miterlimit: 4; is-custom-font: none; font-file-url: none; fill: rgb(0,0,0); fill-rule: nonzero; opacity: 1;" transform=" translate(-2335.8618, -1855.1924)" d="M 2328 1853 c 7 -3 16 -2 19 1 c 4 3 -2 6 -13 5 c -11 0 -14 -3 -6 -6 z" stroke-linecap="round"/>
</g>
		<g transform="matrix(0.1333 0 0 -0.1333 176.2248 112.3279)">
<path style="stroke: none; stroke-width: 1; stroke-dasharray: none; stroke-linecap: butt; stroke-dashoffset: 0; stroke-linejoin: miter; stroke-miterlimit: 4; is-custom-font: none; font-file-url: none; fill: rgb(0,0,0); fill-rule: nonzero; opacity: 1;" transform=" translate(-3821.7377, -1657.5)" d="M 3917 1802 c -10 -10 -14 -22 -10 -27 c 5 -4 2 -5 -5 -1 c -17 10 -81 -47 -194 -174 l -93 -105 l 105 90 c 106 92 233 175 267 175 c 21 0 56 20 35 20 c -7 0 -10 5 -6 12 c 4 7 3 8 -5 4 c -6 -4 -8 -13 -4 -19 c 5 -9 2 -8 -8 0 c -13 11 -25 15 -69 22 c -3 1 2 6 10 11 c 8 5 10 10 4 10 c -6 0 -18 -8 -27 -18 z" stroke-linecap="round"/>
</g>
		<g transform="matrix(0.1333 0 0 -0.1333 -113.5975 96.6012)">
<path style="stroke: none; stroke-width: 1; stroke-dasharray: none; stroke-linecap: butt; stroke-dashoffset: 0; stroke-linejoin: miter; stroke-miterlimit: 4; is-custom-font: none; font-file-url: none; fill: rgb(0,0,0); fill-rule: nonzero; opacity: 1;" transform=" translate(-1648.0358, -1775.4852)" d="M 1645 1790 c 4 -6 -8 -10 -29 -10 c -20 0 -36 -4 -36 -10 c 0 -14 39 -22 95 -18 c 46 3 48 4 32 20 c -10 10 -25 14 -34 11 c -11 -4 -14 -3 -9 5 c 4 7 1 12 -9 12 c -9 0 -13 -4 -10 -10 z" stroke-linecap="round"/>
</g>
		<g transform="matrix(0.1333 0 0 -0.1333 207.3328 96.3058)">
<path style="stroke: none; stroke-width: 1; stroke-dasharray: none; stroke-linecap: butt; stroke-dashoffset: 0; stroke-linejoin: miter; stroke-miterlimit: 4; is-custom-font: none; font-file-url: none; fill: rgb(0,0,0); fill-rule: nonzero; opacity: 1;" transform=" translate(-4055, -1777.7048)" d="M 4040 1780 c 0 -6 7 -10 15 -10 c 8 0 15 2 15 4 c 0 2 -7 6 -15 10 c -8 3 -15 1 -15 -4 z" stroke-linecap="round"/>
</g>
		<g transform="matrix(0.1333 0 0 -0.1333 218.9057 95.9996)">
<path style="stroke: none; stroke-width: 1; stroke-dasharray: none; stroke-linecap: butt; stroke-dashoffset: 0; stroke-linejoin: miter; stroke-miterlimit: 4; is-custom-font: none; font-file-url: none; fill: rgb(0,0,0); fill-rule: nonzero; opacity: 1;" transform=" translate(-4141.7952, -1780)" d="M 4135 1780 c -3 -5 -1 -10 4 -10 c 6 0 11 5 11 10 c 0 6 -2 10 -4 10 c -3 0 -8 -4 -11 -10 z" stroke-linecap="round"/>
</g>
		<g transform="matrix(0.1333 0 0 -0.1333 229.0422 99.0798)">
<path style="stroke: none; stroke-width: 1; stroke-dasharray: none; stroke-linecap: butt; stroke-dashoffset: 0; stroke-linejoin: miter; stroke-miterlimit: 4; is-custom-font: none; font-file-url: none; fill: rgb(0,0,0); fill-rule: nonzero; opacity: 1;" transform=" translate(-4217.8191, -1756.898)" d="M 4210 1761 c 0 -6 4 -13 10 -16 c 6 -3 7 1 4 9 c -7 18 -14 21 -14 7 z" stroke-linecap="round"/>
</g>
		<g transform="matrix(0.1333 0 0 -0.1333 -92.1535 101.4408)">
<path style="stroke: none; stroke-width: 1; stroke-dasharray: none; stroke-linecap: butt; stroke-dashoffset: 0; stroke-linejoin: miter; stroke-miterlimit: 4; is-custom-font: none; font-file-url: none; fill: rgb(0,0,0); fill-rule: nonzero; opacity: 1;" transform=" translate(-1808.8535, -1739.1891)" d="M 1820 1752 c 0 -7 -7 -12 -15 -12 c -8 0 -15 -4 -15 -10 c 0 -5 4 -10 9 -10 c 13 0 35 29 27 37 c -3 3 -6 1 -6 -5 z" stroke-linecap="round"/>
</g>
		<g transform="matrix(0.1333 0 0 -0.1333 239.3727 110.4533)">
<path style="stroke: none; stroke-width: 1; stroke-dasharray: none; stroke-linecap: butt; stroke-dashoffset: 0; stroke-linejoin: miter; stroke-miterlimit: 4; is-custom-font: none; font-file-url: none; fill: rgb(0,0,0); fill-rule: nonzero; opacity: 1;" transform=" translate(-4295.3016, -1671.5937)" d="M 4300 1691 c -8 -6 -17 -8 -20 -6 c -3 2 -7 -8 -8 -21 c -1 -15 2 -23 8 -19 c 6 4 7 11 4 17 c -5 8 -1 9 12 4 c 10 -4 15 -4 11 0 c -4 4 -2 13 4 21 c 13 15 10 16 -11 4 z" stroke-linecap="round"/>
</g>
		<g transform="matrix(0.1333 0 0 -0.1333 241.7819 121.4663)">
<path style="stroke: none; stroke-width: 1; stroke-dasharray: none; stroke-linecap: butt; stroke-dashoffset: 0; stroke-linejoin: miter; stroke-miterlimit: 4; is-custom-font: none; font-file-url: none; fill: rgb(0,0,0); fill-rule: nonzero; opacity: 1;" transform=" translate(-4313.3813, -1588.989)" d="M 4301 1622 c 0 -19 -5 -31 -11 -27 c -6 3 -13 -1 -16 -10 c -5 -12 -9 -13 -14 -5 c -5 8 -9 5 -13 -9 c -11 -42 101 -50 127 -8 c 12 19 10 22 -28 31 c -26 6 -28 5 -17 -8 c 8 -10 9 -16 3 -16 c -19 0 -24 20 -10 37 c 8 10 8 14 1 10 c -7 -5 -13 1 -16 15 c -3 17 -5 14 -6 -10 z" stroke-linecap="round"/>
</g>
		<g transform="matrix(0.1333 0 0 -0.1333 236.7811 116.6409)">
<path style="stroke: none; stroke-width: 1; stroke-dasharray: none; stroke-linecap: butt; stroke-dashoffset: 0; stroke-linejoin: miter; stroke-miterlimit: 4; is-custom-font: none; font-file-url: none; fill: rgb(0,0,0); fill-rule: nonzero; opacity: 1;" transform=" translate(-4275.8618, -1625.1924)" d="M 4268 1623 c 7 -3 16 -2 19 1 c 4 3 -2 6 -13 5 c -11 0 -14 -3 -6 -6 z" stroke-linecap="round"/>
</g>
		<g transform="matrix(0.1333 0 0 -0.1333 255.3329 117.9995)">
<path style="stroke: none; stroke-width: 1; stroke-dasharray: none; stroke-linecap: butt; stroke-dashoffset: 0; stroke-linejoin: miter; stroke-miterlimit: 4; is-custom-font: none; font-file-url: none; fill: rgb(0,0,0); fill-rule: nonzero; opacity: 1;" transform=" translate(-4415, -1615)" d="M 4403 1615 c 0 -6 6 -12 12 -12 c 6 0 12 6 12 12 c 0 6 -6 12 -12 12 c -6 0 -12 -6 -12 -12 z" stroke-linecap="round"/>
</g>
		<g transform="matrix(0.1333 0 0 -0.1333 183.3751 142.5225)">
<path style="stroke: none; stroke-width: 1; stroke-dasharray: none; stroke-linecap: butt; stroke-dashoffset: 0; stroke-linejoin: miter; stroke-miterlimit: 4; is-custom-font: none; font-file-url: none; fill: rgb(0,0,0); fill-rule: nonzero; opacity: 1;" transform=" translate(-3875.3863, -1431.0485)" d="M 3904 1558 c -88 -10 -210 -71 -294 -148 c -40 -36 -36 -36 35 2 c 91 47 173 69 252 66 c 40 -1 70 -4 68 -7 c -3 -2 5 -9 17 -15 c 36 -19 43 -40 28 -86 c -13 -39 -13 -43 5 -56 c 47 -34 127 1 145 63 c 15 48 1 109 -23 107 c -10 -1 -17 2 -17 7 c 0 5 -5 9 -11 9 c -5 0 -7 -6 -3 -12 c 4 -7 3 -9 -2 -5 c -4 4 -8 20 -9 34 c 0 18 -6 27 -20 30 c -65 14 -117 18 -171 11 z" stroke-linecap="round"/>
</g>
		<g transform="matrix(0.1333 0 0 -0.1333 -186.174 139.4504)">
<path style="stroke: none; stroke-width: 1; stroke-dasharray: none; stroke-linecap: butt; stroke-dashoffset: 0; stroke-linejoin: miter; stroke-miterlimit: 4; is-custom-font: none; font-file-url: none; fill: rgb(0,0,0); fill-rule: nonzero; opacity: 1;" transform=" translate(-1103.7677, -1454.1002)" d="M 826 1518 c -25 -36 -19 -67 19 -104 c 71 -66 172 -60 388 25 c 53 21 157 73 162 82 c 12 18 -46 20 -102 3 c -84 -25 -319 -26 -386 -1 c -60 22 -63 22 -81 -5 z" stroke-linecap="round"/>
</g>
		<g transform="matrix(0.1333 0 0 -0.1333 -201.716 221.3236)">
<path style="stroke: none; stroke-width: 1; stroke-dasharray: none; stroke-linecap: butt; stroke-dashoffset: 0; stroke-linejoin: miter; stroke-miterlimit: 4; is-custom-font: none; font-file-url: none; fill: rgb(0,0,0); fill-rule: nonzero; opacity: 1;" transform=" translate(-987.1969, -840)" d="M 720 1070 l 0 -60 l 100 0 l 100 0 l 0 -230 l 0 -230 l 75 0 l 75 0 l 0 230 l 0 230 l 89 0 l 89 0 l 4 53 c 3 28 3 55 1 59 c -2 4 -123 7 -268 7 l -265 1 l 0 -60 z" stroke-linecap="round"/>
</g>
		<g transform="matrix(0.1333 0 0 -0.1333 -116.0084 221.4568)">
<path style="stroke: none; stroke-width: 1; stroke-dasharray: none; stroke-linecap: butt; stroke-dashoffset: 0; stroke-linejoin: miter; stroke-miterlimit: 4; is-custom-font: none; font-file-url: none; fill: rgb(0,0,0); fill-rule: nonzero; opacity: 1;" transform=" translate(-1630, -839)" d="M 1380 841 l 0 -291 l 75 0 l 75 0 l 0 90 l 0 90 l 38 0 c 36 0 39 -4 98 -93 l 61 -92 l 76 3 c 43 2 77 6 77 8 c 0 3 -27 45 -61 94 l -61 88 l 50 49 c 43 42 51 55 57 100 c 13 97 -17 166 -93 210 c -44 26 -53 27 -219 31 l -173 5 l 0 -292 z m 299 155 c 28 -15 51 -53 51 -85 c 0 -22 -39 -59 -65 -61 c -11 -1 -46 -2 -77 -1 l -58 1 l 0 80 l 0 80 l 60 0 c 34 0 73 -6 89 -14 z" stroke-linecap="round"/>
</g>
		<g transform="matrix(0.1333 0 0 -0.1333 -27.3496 221.6763)">
<path style="stroke: none; stroke-width: 1; stroke-dasharray: none; stroke-linecap: butt; stroke-dashoffset: 0; stroke-linejoin: miter; stroke-miterlimit: 4; is-custom-font: none; font-file-url: none; fill: rgb(0,0,0); fill-rule: nonzero; opacity: 1;" transform=" translate(-2294.9568, -837.354)" d="M 2211 1108 c -14 -38 -74 -182 -156 -376 c -43 -101 -76 -185 -74 -186 c 2 -2 37 -2 76 1 l 73 6 l 24 53 l 25 54 l 111 0 l 110 0 l 25 -55 l 24 -55 l 80 0 l 80 0 l -66 138 c -74 155 -150 317 -163 347 c -42 102 -35 95 -101 95 c -52 0 -60 -3 -68 -22 z m 129 -324 c 0 -10 -16 -14 -61 -14 c -69 0 -68 -4 -22 100 l 25 55 l 29 -64 c 16 -35 29 -70 29 -77 z" stroke-linecap="round"/>
</g>
		<g transform="matrix(0.1333 0 0 -0.1333 56.5229 221.323)">
<path style="stroke: none; stroke-width: 1; stroke-dasharray: none; stroke-linecap: butt; stroke-dashoffset: 0; stroke-linejoin: miter; stroke-miterlimit: 4; is-custom-font: none; font-file-url: none; fill: rgb(0,0,0); fill-rule: nonzero; opacity: 1;" transform=" translate(-2924, -840.0047)" d="M 2673 1123 c -35 -2 -63 -6 -63 -8 c 0 -1 9 -20 19 -42 c 17 -34 74 -164 187 -430 l 39 -93 l 66 0 l 65 0 l 78 178 c 43 97 84 191 92 207 c 7 17 29 67 48 113 l 34 82 l -61 0 c -103 0 -98 4 -160 -153 c -30 -78 -63 -163 -72 -190 c -10 -26 -19 -46 -21 -45 c -1 2 -14 34 -28 72 c -38 100 -118 289 -129 304 c -5 6 -15 11 -21 10 c -6 -1 -39 -3 -73 -5 z" stroke-linecap="round"/>
</g>
		<g transform="matrix(0.1333 0 0 -0.1333 144.257 221.7902)">
<path style="stroke: none; stroke-width: 1; stroke-dasharray: none; stroke-linecap: butt; stroke-dashoffset: 0; stroke-linejoin: miter; stroke-miterlimit: 4; is-custom-font: none; font-file-url: none; fill: rgb(0,0,0); fill-rule: nonzero; opacity: 1;" transform=" translate(-3581.9849, -836.5)" d="M 3354 1115 c -7 -18 -1 -551 6 -558 c 3 -2 105 -7 227 -9 l 221 -5 l 4 59 c 2 33 1 62 -1 64 c -2 2 -73 4 -158 4 l -153 0 l 0 39 c 0 72 -3 71 146 71 l 134 0 l 0 60 l 0 60 l -141 0 l -140 0 l 3 53 l 3 52 l 153 3 l 152 3 l 0 59 l 0 60 l -225 0 c -190 0 -227 -2 -231 -15 z" stroke-linecap="round"/>
</g>
		<g transform="matrix(0.1333 0 0 -0.1333 222.4448 221.6569)">
<path style="stroke: none; stroke-width: 1; stroke-dasharray: none; stroke-linecap: butt; stroke-dashoffset: 0; stroke-linejoin: miter; stroke-miterlimit: 4; is-custom-font: none; font-file-url: none; fill: rgb(0,0,0); fill-rule: nonzero; opacity: 1;" transform=" translate(-4168.3902, -837.5)" d="M 3958 843 c -3 -159 -5 -289 -4 -289 c 0 -1 95 -3 211 -5 l 209 -4 l 6 24 c 3 13 4 41 2 62 l -4 39 l -134 0 l -134 0 l 0 230 l 0 230 l -74 0 l -73 0 l -5 -287 z" stroke-linecap="round"/>
</g>
		<g transform="matrix(0.1333 0 0 -0.1333 -109.2634 286.0861)">
<path style="stroke: none; stroke-width: 1; stroke-dasharray: none; stroke-linecap: butt; stroke-dashoffset: 0; stroke-linejoin: miter; stroke-miterlimit: 4; is-custom-font: none; font-file-url: none; fill: rgb(0,0,0); fill-rule: nonzero; opacity: 1;" transform=" translate(-1680.5374, -354.3378)" d="M 1630 406 c 0 -9 7 -16 15 -16 c 11 0 15 -12 15 -50 c 0 -38 4 -50 15 -50 c 11 0 15 12 15 50 c 0 44 3 50 21 50 c 42 0 12 25 -34 28 c -37 2 -47 0 -47 -12 z" stroke-linecap="round"/>
</g>
		<g transform="matrix(0.1333 0 0 -0.1333 -89.5677 286.1221)">
<path style="stroke: none; stroke-width: 1; stroke-dasharray: none; stroke-linecap: butt; stroke-dashoffset: 0; stroke-linejoin: miter; stroke-miterlimit: 4; is-custom-font: none; font-file-url: none; fill: rgb(0,0,0); fill-rule: nonzero; opacity: 1;" transform=" translate(-1828.2589, -354.068)" d="M 1782 400 c -44 -41 -17 -110 43 -110 c 59 0 91 54 58 99 c -26 34 -71 39 -101 11 z m 78 -25 c 14 -17 5 -51 -16 -59 c -22 -8 -54 11 -54 32 c 0 38 46 56 70 27 z" stroke-linecap="round"/>
</g>
		<g transform="matrix(0.1333 0 0 -0.1333 -66.6305 285.9917)">
<path style="stroke: none; stroke-width: 1; stroke-dasharray: none; stroke-linecap: butt; stroke-dashoffset: 0; stroke-linejoin: miter; stroke-miterlimit: 4; is-custom-font: none; font-file-url: none; fill: rgb(0,0,0); fill-rule: nonzero; opacity: 1;" transform=" translate(-2000.2858, -355.0462)" d="M 1943 405 c -8 -21 3 -83 18 -101 c 18 -22 66 -17 83 8 c 21 30 22 108 1 108 c -11 0 -15 -12 -15 -44 c 0 -54 -24 -81 -46 -51 c -8 10 -14 36 -14 57 c 0 38 -15 51 -27 23 z" stroke-linecap="round"/>
</g>
		<g transform="matrix(0.1333 0 0 -0.1333 -44.6899 286.6176)">
<path style="stroke: none; stroke-width: 1; stroke-dasharray: none; stroke-linecap: butt; stroke-dashoffset: 0; stroke-linejoin: miter; stroke-miterlimit: 4; is-custom-font: none; font-file-url: none; fill: rgb(0,0,0); fill-rule: nonzero; opacity: 1;" transform=" translate(-2164.8398, -350.3509)" d="M 2110 355 c 0 -51 3 -65 15 -65 c 8 0 15 9 15 20 c 0 27 14 25 34 -5 c 22 -34 37 -32 30 4 c -4 16 -1 32 5 35 c 17 11 13 41 -7 59 c -10 10 -35 17 -55 17 l -37 0 l 0 -65 z m 75 15 c 0 -22 -39 -19 -43 3 c -3 15 1 18 20 15 c 12 -2 23 -10 23 -18 z" stroke-linecap="round"/>
</g>
		<g transform="matrix(0.1333 0 0 -0.1333 -12.0571 286.499)">
<path style="stroke: none; stroke-width: 1; stroke-dasharray: none; stroke-linecap: butt; stroke-dashoffset: 0; stroke-linejoin: miter; stroke-miterlimit: 4; is-custom-font: none; font-file-url: none; fill: rgb(0,0,0); fill-rule: nonzero; opacity: 1;" transform=" translate(-2409.5893, -351.2402)" d="M 2371 406 c -6 -7 -9 -20 -6 -28 c 3 -8 -1 -21 -10 -28 c -20 -17 -19 -33 5 -55 c 14 -13 26 -15 47 -10 c 15 5 37 7 47 6 c 14 -2 17 2 12 14 c -3 10 -1 24 5 32 c 17 20 2 30 -23 14 c -13 -8 -24 -9 -30 -3 c -6 6 -6 12 1 16 c 6 4 11 18 11 32 c 0 19 -5 24 -24 24 c -13 0 -29 -6 -35 -14 z m 39 -22 c 0 -8 -4 -12 -10 -9 c -5 3 -10 10 -10 16 c 0 5 5 9 10 9 c 6 0 10 -7 10 -16 z m -5 -64 c 0 -22 -29 -18 -33 3 c -3 14 1 18 15 15 c 10 -2 18 -10 18 -18 z" stroke-linecap="round"/>
</g>
		<g transform="matrix(0.1333 0 0 -0.1333 19.3315 285.9979)">
<path style="stroke: none; stroke-width: 1; stroke-dasharray: none; stroke-linecap: butt; stroke-dashoffset: 0; stroke-linejoin: miter; stroke-miterlimit: 4; is-custom-font: none; font-file-url: none; fill: rgb(0,0,0); fill-rule: nonzero; opacity: 1;" transform=" translate(-2645, -355)" d="M 2590 405 c 0 -8 9 -15 20 -15 c 17 0 20 -7 20 -50 c 0 -38 4 -50 15 -50 c 11 0 15 12 15 50 c 0 43 3 50 20 50 c 11 0 20 7 20 15 c 0 12 -13 15 -55 15 c -42 0 -55 -3 -55 -15 z" stroke-linecap="round"/>
</g>
		<g transform="matrix(0.1333 0 0 -0.1333 38.7284 286.6644)">
<path style="stroke: none; stroke-width: 1; stroke-dasharray: none; stroke-linecap: butt; stroke-dashoffset: 0; stroke-linejoin: miter; stroke-miterlimit: 4; is-custom-font: none; font-file-url: none; fill: rgb(0,0,0); fill-rule: nonzero; opacity: 1;" transform=" translate(-2790.4757, -350)" d="M 2740 355 c 0 -69 4 -76 27 -47 c 13 16 14 16 29 -5 c 9 -13 23 -23 30 -23 c 17 0 18 12 2 28 c -10 10 -10 17 0 32 c 29 46 8 80 -50 80 l -38 0 l 0 -65 z m 70 20 c 0 -9 -7 -18 -16 -22 c -18 -7 -39 11 -30 26 c 11 17 46 13 46 -4 z" stroke-linecap="round"/>
</g>
		<g transform="matrix(0.1333 0 0 -0.1333 59.568 286.6556)">
<path style="stroke: none; stroke-width: 1; stroke-dasharray: none; stroke-linecap: butt; stroke-dashoffset: 0; stroke-linejoin: miter; stroke-miterlimit: 4; is-custom-font: none; font-file-url: none; fill: rgb(0,0,0); fill-rule: nonzero; opacity: 1;" transform=" translate(-2946.7753, -350.0656)" d="M 2906 359 c -14 -33 -24 -65 -20 -70 c 8 -14 24 -11 24 6 c 0 10 11 15 35 15 c 19 0 35 -4 35 -10 c 0 -5 7 -10 15 -10 c 19 0 20 -2 -11 69 c -15 34 -32 61 -39 61 c -7 0 -24 -27 -39 -61 z m 54 -11 c 0 -5 -7 -8 -15 -8 c -17 0 -18 2 -9 25 c 5 13 8 14 15 3 c 5 -7 9 -16 9 -20 z" stroke-linecap="round"/>
</g>
		<g transform="matrix(0.1333 0 0 -0.1333 78.4475 285.9004)">
<path style="stroke: none; stroke-width: 1; stroke-dasharray: none; stroke-linecap: butt; stroke-dashoffset: 0; stroke-linejoin: miter; stroke-miterlimit: 4; is-custom-font: none; font-file-url: none; fill: rgb(0,0,0); fill-rule: nonzero; opacity: 1;" transform=" translate(-3088.3708, -355.7312)" d="M 3048 355 c 32 -83 50 -84 80 -7 c 26 68 26 72 7 72 c -8 0 -15 -6 -15 -13 c 0 -18 -23 -67 -32 -67 c -4 0 -13 18 -19 40 c -8 27 -18 40 -30 40 c -16 0 -15 -6 9 -65 z" stroke-linecap="round"/>
</g>
		<g transform="matrix(0.1333 0 0 -0.1333 98.6772 285.9979)">
<path style="stroke: none; stroke-width: 1; stroke-dasharray: none; stroke-linecap: butt; stroke-dashoffset: 0; stroke-linejoin: miter; stroke-miterlimit: 4; is-custom-font: none; font-file-url: none; fill: rgb(0,0,0); fill-rule: nonzero; opacity: 1;" transform=" translate(-3240.092, -355)" d="M 3190 355 l 0 -65 l 50 0 c 52 0 70 16 23 22 c -32 4 -44 28 -14 28 c 28 0 27 18 -1 22 c -35 5 -33 26 3 30 c 56 5 48 28 -10 28 l -51 0 l 0 -65 z" stroke-linecap="round"/>
</g>
		<g transform="matrix(0.1333 0 0 -0.1333 117.9985 285.9979)">
<path style="stroke: none; stroke-width: 1; stroke-dasharray: none; stroke-linecap: butt; stroke-dashoffset: 0; stroke-linejoin: miter; stroke-miterlimit: 4; is-custom-font: none; font-file-url: none; fill: rgb(0,0,0); fill-rule: nonzero; opacity: 1;" transform=" translate(-3385, -355)" d="M 3340 401 c 0 -10 3 -39 6 -65 c 7 -46 7 -46 45 -46 c 28 0 39 4 39 15 c 0 10 -10 15 -30 15 c -29 0 -30 1 -30 50 c 0 38 -4 50 -15 50 c -8 0 -15 -8 -15 -19 z" stroke-linecap="round"/>
</g>
		<g transform="matrix(0.1333 0 0 -0.1333 -174.7408 286.6766)">
<path style="stroke: none; stroke-width: 1; stroke-dasharray: none; stroke-linecap: butt; stroke-dashoffset: 0; stroke-linejoin: miter; stroke-miterlimit: 4; is-custom-font: none; font-file-url: none; fill: rgb(0,0,0); fill-rule: nonzero; opacity: 1;" transform=" translate(-1189.5268, -349.9234)" d="M 860 350 c -14 -4 129 -8 318 -9 c 222 -1 342 3 342 9 c 0 12 -622 12 -660 0 z" stroke-linecap="round"/>
</g>
		<g transform="matrix(0.1333 0 0 -0.1333 186.6553 286.6664)">
<path style="stroke: none; stroke-width: 1; stroke-dasharray: none; stroke-linecap: butt; stroke-dashoffset: 0; stroke-linejoin: miter; stroke-miterlimit: 4; is-custom-font: none; font-file-url: none; fill: rgb(0,0,0); fill-rule: nonzero; opacity: 1;" transform=" translate(-3900, -350)" d="M 3560 350 c 0 -6 120 -10 340 -10 c 220 0 340 4 340 10 c 0 6 -120 10 -340 10 c -220 0 -340 -4 -340 -10 z" stroke-linecap="round"/>
</g>
</g>
</g>
</svg>