<svg xmlns="http://www.w3.org/2000/svg" xmlns:xlink="http://www.w3.org/1999/xlink" width="112" height="112" viewBox="0 0 112 112">
  <defs>
    <clipPath id="clip-path">
      <circle id="Ellipse_9458" data-name="Ellipse 9458" cx="56" cy="56" r="56" transform="translate(14567.127 2225.344)" fill="#e4f6ff"/>
    </clipPath>
  </defs>
  <g id="Indonesia" transform="translate(892 -4934.824)">
    <g id="Group_43013" data-name="Group 43013" transform="translate(-15459 2569.824)">
      <circle id="Ellipse_9450" data-name="Ellipse 9450" cx="56" cy="56" r="56" transform="translate(14567 2365)" fill="#f0f8fe"/>
      <g id="Group_20446" data-name="Group 20446" transform="translate(-0.127 139.656)" clip-path="url(#clip-path)">
        <g id="Group_44815" data-name="Group 44815" transform="translate(14531.92 2194.153)">
          <path id="Path_137293" data-name="Path 137293" d="M69.786,140.822h8.287a1.036,1.036,0,1,0,0-2.072H69.786a1.036,1.036,0,1,0,0,2.072Z" transform="translate(-3.43 -15.42)" fill="#162139" stroke="#f0f8fe" stroke-width="0.4"/>
          <path id="Path_137294" data-name="Path 137294" d="M119.786,140.822h8.287a1.036,1.036,0,1,0,0-2.072h-8.287a1.036,1.036,0,1,0,0,2.072Z" transform="translate(-11.997 -15.42)" fill="#162139" stroke="#f0f8fe" stroke-width="0.4"/>
          <path id="Path_137295" data-name="Path 137295" d="M131.359,143.75H114.786a1.036,1.036,0,1,0,0,2.072h16.573a1.036,1.036,0,0,0,0-2.072Z" transform="translate(-11.14 -16.276)" fill="#162139" stroke="#f0f8fe" stroke-width="0.4"/>
          <path id="Path_137296" data-name="Path 137296" d="M81.359,143.75H64.786a1.036,1.036,0,0,0,0,2.072H81.359a1.036,1.036,0,1,0,0-2.072Z" transform="translate(-2.573 -16.276)" fill="#162139" stroke="#f0f8fe" stroke-width="0.4"/>
          <path id="Path_137297" data-name="Path 137297" d="M84.786,105.822h24.86a1.036,1.036,0,0,0,1.036-1.036,1.053,1.053,0,0,0-1.1-1.036H84.72a1.025,1.025,0,0,0-.97,1.036A1.036,1.036,0,0,0,84.786,105.822Z" transform="translate(-6 -9.423)" fill="#162139" stroke="#f0f8fe" stroke-width="0.4"/>
          <path id="Path_137298" data-name="Path 137298" d="M132.649,131.617H125.4V120.223a1.036,1.036,0,0,0-1.036-1.036h-3.108V102.415a41.6,41.6,0,0,0,9.778-4.732l2.188-1.458a1.039,1.039,0,0,0-.829-1.873l-5.32,1.326A19.56,19.56,0,0,1,108.9,90.83V75.3a41.5,41.5,0,0,0,17.982-6.621l2.188-1.458a.973.973,0,0,0,.29-1.26,1.118,1.118,0,0,0-1.284-.563,33.283,33.283,0,0,1-28.713-6.265l-7.118-5.7V49.786a1.036,1.036,0,1,0-2.072,0v3.646l-7.118,5.7a33.409,33.409,0,0,1-28.887,6.223,1.022,1.022,0,0,0-1.193.588,1.038,1.038,0,0,0,.373,1.276l2.188,1.458A41.422,41.422,0,0,0,73.6,75.3V90.755a19.534,19.534,0,0,1-18.256,4.922l-5.32-1.326a1.039,1.039,0,0,0-.829,1.873l2.188,1.458a41.265,41.265,0,0,0,9.778,4.723v16.772H58.053a1.036,1.036,0,0,0-1.036,1.036v11.394H49.766a1.036,1.036,0,1,0,0,2.072h82.867a1.036,1.036,0,1,0,0-2.072Zm-13.466-12.43h-2.072V103.55c.688-.157,1.392-.273,2.072-.464Zm-10.358,0V104.619a41.988,41.988,0,0,0,6.215-.6v15.173ZM99.5,115.044a1.036,1.036,0,0,0-1.036,1.036v15.538h-14.5V116.079a1.036,1.036,0,1,0-2.072,0v3.108H79.913A11.314,11.314,0,0,1,91.34,108.829a11.071,11.071,0,0,1,11.17,10.358h-1.972v-3.108a1.036,1.036,0,0,0-1.036-1.036Zm-32.111,4.143V104.006a41.772,41.772,0,0,0,6.215.6v14.576Zm8.287-14.5H77.75v14.5H75.678Zm26.932,0v8.37a13.547,13.547,0,0,0-11.519-6.3,13.1,13.1,0,0,0-11.27,6.273v-8.345Zm2.072,0h2.072v14.5h-2.072Zm-24.86-14.5V79.825H102.61V90.184Zm22.788-14.5v2.072H79.822V75.682Zm4.226,14.5h-2.155V75.615c.721-.017,1.434-.108,2.155-.157ZM84.355,60.749l6.861-5.494,6.861,5.494a35.447,35.447,0,0,0,25.589,7.508,39.631,39.631,0,0,1-20.021,5.361H78.662A39.448,39.448,0,0,1,58.79,68.273a35.336,35.336,0,0,0,25.556-7.516Zm-6.6,14.858V90.184H75.678V75.458c.688.05,1.376.133,2.072.149ZM75.065,92.255h32.393a21.694,21.694,0,0,0,19.175,5.652,39.619,39.619,0,0,1-18.852,4.707H74.51a39.446,39.446,0,0,1-18.728-4.707,21.707,21.707,0,0,0,19.275-5.652ZM63.248,103.078c.68.191,1.384.307,2.072.464v15.645H63.248ZM59.1,131.617V121.259H81.893v10.358Zm41.434,0V121.259h22.788v10.358Z" fill="#162139" stroke="#f0f8fe" stroke-width="0.6"/>
          <path id="Path_137299" data-name="Path 137299" d="M113.968,74.786a1.036,1.036,0,0,0-1.036-1.036H79.786a1.036,1.036,0,0,0,0,2.072h33.147A1.036,1.036,0,0,0,113.968,74.786Z" transform="translate(-5.143 -4.283)" fill="#162139" stroke="#f0f8fe" stroke-width="0.4"/>
          <path id="Path_137300" data-name="Path 137300" d="M89.786,70.822h16.573a1.036,1.036,0,1,0,0-2.072H89.786a1.036,1.036,0,0,0,0,2.072Z" transform="translate(-6.857 -3.427)" fill="#162139" stroke="#f0f8fe" stroke-width="0.4"/>
          <path id="Path_137301" data-name="Path 137301" d="M94.786,65.822h8.287a1.036,1.036,0,1,0,0-2.072H94.786a1.036,1.036,0,1,0,0,2.072Z" transform="translate(-7.713 -2.57)" fill="#162139" stroke="#f0f8fe" stroke-width="0.4"/>
          <path id="Path_137302" data-name="Path 137302" d="M112.933,110.822a1.036,1.036,0,0,0,0-2.072H79.786a1.036,1.036,0,0,0,0,2.072Z" transform="translate(-5.143 -10.28)" fill="#162139" stroke="#f0f8fe" stroke-width="0.4"/>
        </g>
      </g>
    </g>
    <path id="Path_137346" data-name="Path 137346" d="M.3-.26h23.48V11H.3Z" transform="translate(-847.994 4983.271)" fill="#acdaff"/>
    <path id="Path_137347" data-name="Path 137347" d="M-.268,0,6.79.679V16H-.268Z" transform="translate(-859.994 5007.271)" fill="#acdaff"/>
    <path id="Path_137348" data-name="Path 137348" d="M6.707,0-.268.679V16H6.707Z" transform="translate(-818.519 5007.271)" fill="#acdaff"/>
    <g id="Path_137349" data-name="Path 137349" transform="translate(-843.994 5017.271)" fill="#acdaff">
      <path d="M 15.27124500274658 17.88330078125 L 0.8920950293540955 17.88330078125 L 0.8920950293540955 2.57080078125 L 15.27124500274658 2.57080078125 L 15.27124500274658 17.88330078125 Z" stroke="none"/>
      <path d="M 1.392085075378418 3.07080078125 L 1.392085075378418 17.38330078125 L 14.7712345123291 17.38330078125 L 14.7712345123291 3.07080078125 L 1.392085075378418 3.07080078125 M 0.392085075378418 2.07080078125 L 15.77123546600342 2.07080078125 L 15.77123546600342 18.38330078125 L 0.392085075378418 18.38330078125 L 0.392085075378418 2.07080078125 Z" stroke="none" fill="#acdaff"/>
    </g>
    <g id="Path_137350" data-name="Path 137350" transform="translate(-844.994 5018.271)" fill="#fff">
      <path d="M 17.27687072753906 1.501761674880981 C 17.23542022705078 1.501761674880981 17.19281959533691 1.501351714134216 17.14929008483887 1.500931739807129 C 17.10054969787598 1.500471711158752 17.05071067810059 1.500001788139343 17 1.500001788139343 L 1 1.500001788139343 C 0.9493100047111511 1.500001788139343 0.8994500041007996 1.500471711158752 0.8506900072097778 1.500931739807129 C 0.8071600198745728 1.501351714134216 0.7645599842071533 1.501761674880981 0.7231299877166748 1.501761674880981 C 0.6151784062385559 1.501761674880981 0.5452924966812134 1.498087048530579 0.5001607537269592 1.493097305297852 C 0.5069666504859924 1.223281383514404 0.7285741567611694 1.005861759185791 1 1.005861759185791 L 17 1.005861759185791 C 17.27142524719238 1.005861759185791 17.49303245544434 1.223276734352112 17.49983978271484 1.493092775344849 C 17.45471000671387 1.498085856437683 17.38482856750488 1.501761674880981 17.27687072753906 1.501761674880981 Z" stroke="none"/>
      <path d="M 1 0.505861759185791 L 17 0.505861759185791 C 17.55228042602539 0.505861759185791 18 0.9535716772079468 18 1.505861759185791 C 18 2.058141708374023 17.55228042602539 2.000001907348633 17 2.000001668930054 L 1 2.000001668930054 C 0.4477214813232422 2.000001668930054 0 2.058141231536865 0 1.505861759185791 C 0 0.9535716772079468 0.4477195739746094 0.505861759185791 1 0.505861759185791 Z" stroke="none" fill="#162139"/>
    </g>
  </g>
</svg>
