<svg xmlns="http://www.w3.org/2000/svg" xmlns:xlink="http://www.w3.org/1999/xlink" width="112" height="112" viewBox="0 0 112 112">
  <defs>
    <clipPath id="clip-path">
      <circle id="Ellipse_9451" data-name="Ellipse 9451" cx="56" cy="56" r="56" transform="translate(13671.558 2226.487)" fill="#e4f6ff"/>
    </clipPath>
  </defs>
  <g id="Bangalore" transform="translate(-13672 -2367)">
    <circle id="Ellipse_9443" data-name="Ellipse 9443" cx="56" cy="56" r="56" transform="translate(13672 2367)" fill="#f0f8fe"/>
    <g id="Mask_Group_20439" data-name="Mask Group 20439" transform="translate(0.442 140.513)" clip-path="url(#clip-path)">
      <g id="Group_42219" data-name="Group 42219" transform="translate(13689 2236)">
        <rect id="Rectangle_14988" data-name="Rectangle 14988" width="14.352" height="41.007" transform="translate(18.301 50.09)" fill="#acdaff"/>
        <rect id="Rectangle_14989" data-name="Rectangle 14989" width="14.352" height="41.007" transform="translate(42.222 50.09)" fill="#acdaff"/>
        <g id="Group_42218" data-name="Group 42218" transform="translate(0)">
          <rect id="Rectangle_14990" data-name="Rectangle 14990" width="77.115" height="1.14" transform="translate(0 90.45)" fill="#162139"/>
          <path id="Path_126298" data-name="Path 126298" d="M832.045,923.208H821.63V849.48h10.415Zm-9.275-1.14h8.138V850.62H822.77Z" transform="translate(-789.309 -831.617)" fill="#162139"/>
          <path id="Path_126299" data-name="Path 126299" d="M792.836,988.656H777.11V946.82h15.726Zm-14.586-1.14H791.7V947.96H778.25Z" transform="translate(-759.375 -897.065)" fill="#162139"/>
          <path id="Path_126300" data-name="Path 126300" d="M799.016,925.009H786.3V912.68h12.716Zm-11.575-1.14h10.435V913.82H787.44Z" transform="translate(-765.554 -874.111)" fill="#162139"/>
          <path id="Path_126301" data-name="Path 126301" d="M803.258,897.482H792.61v-9.1h10.648Zm-9.508-1.14h8.368v-6.825H793.75Z" transform="translate(-769.797 -857.772)" fill="#162139"/>
          <path id="Path_126302" data-name="Path 126302" d="M808.449,877.246H800.33V870.13h8.119Zm-6.979-1.14h5.838V871.27H801.47Z" transform="translate(-774.987 -845.502)" fill="#162139"/>
          <rect id="Rectangle_14991" data-name="Rectangle 14991" width="3.067" height="1.14" transform="translate(22.846 24.628)" fill="#162139"/>
          <rect id="Rectangle_14992" data-name="Rectangle 14992" width="3.067" height="1.14" transform="translate(20.32 30.604)" fill="#162139"/>
          <rect id="Rectangle_14993" data-name="Rectangle 14993" width="3.067" height="1.14" transform="translate(18.305 38.569)" fill="#162139"/>
          <rect id="Rectangle_14994" data-name="Rectangle 14994" width="3.067" height="1.14" transform="translate(15.238 49.758)" fill="#162139"/>
          <g id="Group_42215" data-name="Group 42215" transform="translate(41.596 24.628)">
            <path id="Path_126303" data-name="Path 126303" d="M865.67,988.656H849.94V946.82h15.73Zm-14.59-1.14H864.53V947.96H851.08Z" transform="translate(-849.94 -921.694)" fill="#162139"/>
            <path id="Path_126304" data-name="Path 126304" d="M862.659,925.009H849.94V912.68h12.719Zm-11.579-1.14h10.438V913.82H851.08Z" transform="translate(-849.94 -898.739)" fill="#162139"/>
            <path id="Path_126305" data-name="Path 126305" d="M860.588,897.482H849.94v-9.1h10.648Zm-9.508-1.14h8.368v-6.825H851.08Z" transform="translate(-849.94 -882.401)" fill="#162139"/>
            <path id="Path_126306" data-name="Path 126306" d="M858.069,877.246H849.95V870.13h8.119Zm-6.979-1.14h5.839V871.27H851.09Z" transform="translate(-849.947 -870.13)" fill="#162139"/>
            <rect id="Rectangle_14995" data-name="Rectangle 14995" width="3.067" height="1.14" transform="translate(7.552)" fill="#162139"/>
            <rect id="Rectangle_14996" data-name="Rectangle 14996" width="3.063" height="1.14" transform="translate(10.078 5.976)" fill="#162139"/>
            <rect id="Rectangle_14997" data-name="Rectangle 14997" width="3.063" height="1.14" transform="translate(12.096 13.941)" fill="#162139"/>
            <rect id="Rectangle_14998" data-name="Rectangle 14998" width="3.067" height="1.14" transform="translate(15.16 25.13)" fill="#162139"/>
          </g>
          <path id="Path_126307" data-name="Path 126307" d="M834.807,829.165H829.63v-11.6h5.177Zm-4.036-1.14h2.9V818.71h-2.9Z" transform="translate(-794.688 -810.162)" fill="#162139"/>
          <rect id="Rectangle_14999" data-name="Rectangle 14999" width="1.14" height="7.978" transform="translate(36.96)" fill="#162139"/>
          <g id="Group_42216" data-name="Group 42216" transform="translate(22.132 60.668)">
            <rect id="Rectangle_15000" data-name="Rectangle 15000" width="1.14" height="25.221" transform="translate(5.789)" fill="#162139"/>
            <rect id="Rectangle_15001" data-name="Rectangle 15001" width="1.14" height="25.221" fill="#162139"/>
          </g>
          <g id="Group_42217" data-name="Group 42217" transform="translate(45.997 60.668)">
            <rect id="Rectangle_15002" data-name="Rectangle 15002" width="1.14" height="25.221" transform="translate(5.789)" fill="#162139"/>
            <rect id="Rectangle_15003" data-name="Rectangle 15003" width="1.14" height="25.221" fill="#162139"/>
          </g>
          <path id="Path_126308" data-name="Path 126308" d="M866.951,929.091H862.38v-4.57h4.571Zm-3.43-1.14h2.29v-2.29h-2.29Z" transform="translate(-816.708 -882.072)" fill="#162139"/>
          <path id="Path_126309" data-name="Path 126309" d="M803.3,929.091h-4.57v-4.57h4.57Zm-3.43-1.14h2.29v-2.29h-2.29Z" transform="translate(-773.912 -882.072)" fill="#162139"/>
          <rect id="Rectangle_15004" data-name="Rectangle 15004" width="2.539" height="1.14" transform="translate(26.581 34.588)" fill="#162139"/>
          <rect id="Rectangle_15005" data-name="Rectangle 15005" width="2.539" height="1.14" transform="translate(45.653 34.588)" fill="#162139"/>
        </g>
      </g>
    </g>
  </g>
</svg>
