<svg xmlns="http://www.w3.org/2000/svg" xmlns:xlink="http://www.w3.org/1999/xlink" width="112" height="112" viewBox="0 0 112 112">
  <defs>
    <clipPath id="clip-path">
      <circle id="Ellipse_9458" data-name="Ellipse 9458" cx="56" cy="56" r="56" transform="translate(14567.127 2225.344)" fill="#e4f6ff"/>
    </clipPath>
  </defs>
  <g id="Dubai" transform="translate(-14567 -2365)">
    <circle id="Ellipse_9450" data-name="Ellipse 9450" cx="56" cy="56" r="56" transform="translate(14567 2365)" fill="#f0f8fe"/>
    <g id="Mask_Group_20446" data-name="Mask Group 20446" transform="translate(-0.127 139.656)" clip-path="url(#clip-path)">
      <g id="Group_42291" data-name="Group 42291" transform="translate(13618.914 2231.398)">
        <path id="Path_126632" data-name="Path 126632" d="M11.526,0H22.5V68.5H4.145l-3-17.64L2.233,28.448,5.061,16.211Z" transform="translate(992.264 32.462)" fill="#acdaff"/>
        <path id="Path_126491" data-name="Path 126491" d="M1125.779,140.871V57H1123v83.606" transform="translate(-105.901 -40.448)" fill="none" stroke="#162139" stroke-linecap="round" stroke-linejoin="round" stroke-width="1.2"/>
        <path id="Path_126492" data-name="Path 126492" d="M1044.359,184.732V117h-10.646l-3.614,2.381c-10.567,16.123-13.732,40.179-7.906,65.792" transform="translate(-29.641 -84.574)" fill="none" stroke="#162139" stroke-linecap="round" stroke-linejoin="round" stroke-width="1.2"/>
        <path id="Path_126493" data-name="Path 126493" d="M1043.461,118.67c-10.917,20.714-13.3,43.5-7.408,67.732" transform="translate(-39.654 -85.802)" fill="none" stroke="#162139" stroke-linecap="round" stroke-linejoin="round" stroke-width="1.2"/>
        <path id="Path_126494" data-name="Path 126494" d="M1067.47,71.458a81.75,81.75,0,0,1,12.311-12.128V74.588" transform="translate(-65.063 -42.162)" fill="none" stroke="#162139" stroke-linecap="round" stroke-linejoin="round" stroke-width="1.2"/>
        <path id="Path_126495" data-name="Path 126495" d="M1012.854,182.8c-6-28.453-1.939-50.984,10.591-68.546" transform="translate(-22.893 -82.551)" fill="none" stroke="#162139" stroke-linecap="round" stroke-linejoin="round" stroke-width="1.2"/>
        <path id="Path_126496" data-name="Path 126496" d="M1079.73,83.244c1.741-2.7,5.1-5.839,7.215-8.244V85.318" transform="translate(-74.079 -53.686)" fill="none" stroke="#162139" stroke-linecap="round" stroke-linejoin="round" stroke-width="1.2"/>
        <line id="Line_614" data-name="Line 614" y2="66.598" transform="translate(1009.445 33.042)" fill="none" stroke="#162139" stroke-linecap="round" stroke-linejoin="round" stroke-width="1.2"/>
        <line id="Line_647" data-name="Line 647" x2="4.757" transform="translate(1009.445 40.653)" fill="none" stroke="#162139" stroke-linecap="round" stroke-linejoin="round" stroke-width="1.2"/>
        <line id="Line_649" data-name="Line 649" x2="4.757" transform="translate(1009.445 46.362)" fill="none" stroke="#162139" stroke-linecap="round" stroke-linejoin="round" stroke-width="1.2"/>
        <line id="Line_651" data-name="Line 651" x2="4.757" transform="translate(1009.445 51.119)" fill="none" stroke="#162139" stroke-linecap="round" stroke-linejoin="round" stroke-width="1.2"/>
        <line id="Line_653" data-name="Line 653" x2="4.757" transform="translate(1009.445 54.924)" fill="none" stroke="#162139" stroke-linecap="round" stroke-linejoin="round" stroke-width="1.2"/>
        <line id="Line_655" data-name="Line 655" x2="4.757" transform="translate(1009.961 59.682)" fill="none" stroke="#162139" stroke-linecap="round" stroke-linejoin="round" stroke-width="1.2"/>
        <line id="Line_657" data-name="Line 657" x2="4.757" transform="translate(1009.961 65.39)" fill="none" stroke="#162139" stroke-linecap="round" stroke-linejoin="round" stroke-width="1.2"/>
        <line id="Line_659" data-name="Line 659" x2="4.757" transform="translate(1009.258 70.147)" fill="none" stroke="#162139" stroke-linecap="round" stroke-linejoin="round" stroke-width="1.2"/>
        <line id="Line_661" data-name="Line 661" x2="4.757" transform="translate(1009.445 75.288)" fill="none" stroke="#162139" stroke-linecap="round" stroke-linejoin="round" stroke-width="1.2"/>
        <line id="Line_663" data-name="Line 663" x2="4.757" transform="translate(1009.305 80.43)" fill="none" stroke="#162139" stroke-linecap="round" stroke-linejoin="round" stroke-width="1.2"/>
        <line id="Line_665" data-name="Line 665" x2="4.757" transform="translate(1009.362 85.571)" fill="none" stroke="#162139" stroke-linecap="round" stroke-linejoin="round" stroke-width="1.2"/>
        <line id="Line_667" data-name="Line 667" x2="4.757" transform="translate(1009.408 90.714)" fill="none" stroke="#162139" stroke-linecap="round" stroke-linejoin="round" stroke-width="1.2"/>
        <line id="Line_668" data-name="Line 668" x2="4.757" transform="translate(1009.445 95.835)" fill="none" stroke="#162139" stroke-linecap="round" stroke-linejoin="round" stroke-width="1.2"/>
        <path id="Path_126497" data-name="Path 126497" d="M1038.76,336a114.607,114.607,0,0,0,14.552,0" transform="translate(-43.949 -245.632)" fill="none" stroke="#162139" stroke-linecap="round" stroke-linejoin="round" stroke-width="1.2"/>
        <path id="Path_126498" data-name="Path 126498" d="M1043.59,357a96.025,96.025,0,0,0,13.319,0" transform="translate(-47.501 -261.075)" fill="none" stroke="#162139" stroke-linecap="round" stroke-linejoin="round" stroke-width="1.2"/>
        <path id="Path_126499" data-name="Path 126499" d="M1036.38,317a124.217,124.217,0,0,0,15.15,0" transform="translate(-42.199 -231.659)" fill="none" stroke="#162139" stroke-linecap="round" stroke-linejoin="round" stroke-width="1.2"/>
        <path id="Path_126500" data-name="Path 126500" d="M1034.95,298a130.163,130.163,0,0,0,15.509,0" transform="translate(-41.147 -217.685)" fill="none" stroke="#162139" stroke-linecap="round" stroke-linejoin="round" stroke-width="1.2"/>
        <path id="Path_126501" data-name="Path 126501" d="M1034.24,279a133.216,133.216,0,0,0,15.689,0" transform="translate(-40.625 -203.712)" fill="none" stroke="#162139" stroke-linecap="round" stroke-linejoin="round" stroke-width="1.2"/>
        <path id="Path_126502" data-name="Path 126502" d="M1035.43,260a128.183,128.183,0,0,0,15.391,0" transform="translate(-41.5 -189.739)" fill="none" stroke="#162139" stroke-linecap="round" stroke-linejoin="round" stroke-width="1.2"/>
        <path id="Path_126503" data-name="Path 126503" d="M1037.57,241a119.367,119.367,0,0,0,14.851,0" transform="translate(-43.074 -175.766)" fill="none" stroke="#162139" stroke-linecap="round" stroke-linejoin="round" stroke-width="1.2"/>
        <path id="Path_126504" data-name="Path 126504" d="M1038.76,222a114.618,114.618,0,0,0,14.552,0" transform="translate(-43.949 -161.793)" fill="none" stroke="#162139" stroke-linecap="round" stroke-linejoin="round" stroke-width="1.2"/>
        <path id="Path_126505" data-name="Path 126505" d="M1041.76,203.069a121.154,121.154,0,0,0,13.758-.069" transform="translate(-46.155 -147.82)" fill="none" stroke="#162139" stroke-linecap="round" stroke-linejoin="round" stroke-width="1.2"/>
        <line id="Line_669" data-name="Line 669" x1="11.417" transform="translate(998.028 46.362)" fill="none" stroke="#162139" stroke-linecap="round" stroke-linejoin="round" stroke-width="1.2"/>
        <line id="Line_670" data-name="Line 670" x1="12.368" transform="translate(997.077 51.119)" fill="none" stroke="#162139" stroke-linecap="round" stroke-linejoin="round" stroke-width="1.2"/>
        <line id="Line_671" data-name="Line 671" x1="8.563" transform="translate(1000.882 40.653)" fill="none" stroke="#162139" stroke-linecap="round" stroke-linejoin="round" stroke-width="1.2"/>
        <line id="Line_672" data-name="Line 672" x2="50.425" transform="translate(979 100.592)" fill="none" stroke="#162139" stroke-linecap="round" stroke-linejoin="round" stroke-width="1.2"/>
        <path id="Path_126506" data-name="Path 126506" d="M1056.473,108.852h-6.551l-1.9-1.852h10.356Z" transform="translate(-50.759 -77.219)" fill="none" stroke="#162139" stroke-linecap="round" stroke-linejoin="round" stroke-width="1.2"/>
        <rect id="Rectangle_15146" data-name="Rectangle 15146" width="3.838" height="3.806" transform="translate(1019.878 32.091)" fill="none" stroke="#162139" stroke-linecap="round" stroke-linejoin="round" stroke-width="1.2"/>
        <path id="Path_126507" data-name="Path 126507" d="M1118.381,16.552V2L1116,3.323V19.991" transform="translate(-101.282 0)" fill="none" stroke="#162139" stroke-linecap="round" stroke-linejoin="round" stroke-width="1.2"/>
      </g>
    </g>
  </g>
</svg>
