<svg xmlns="http://www.w3.org/2000/svg" xmlns:xlink="http://www.w3.org/1999/xlink" width="112" height="112" viewBox="0 0 112 112">
  <defs>
    <clipPath id="clip-path">
      <circle id="Ellipse_9458" data-name="Ellipse 9458" cx="56" cy="56" r="56" transform="translate(14567.127 2225.344)" fill="#e4f6ff"/>
    </clipPath>
  </defs>
  <g id="Jaipur" transform="translate(-14567 -2365)">
    <circle id="Ellipse_9450" data-name="Ellipse 9450" cx="56" cy="56" r="56" transform="translate(14567 2365)" fill="#f0f8fe"/>
    <g id="Mask_Group_20446" data-name="Mask Group 20446" transform="translate(-0.127 139.656)" clip-path="url(#clip-path)">
      <g id="shutterstock_2322691843_Converted_" data-name="shutterstock_2322691843 [Converted]" transform="translate(13968.348 2052.039)">
        <path id="Rectangle_15792" data-name="Rectangle 15792" d="M3.525,0h0A3.525,3.525,0,0,1,7.051,3.525V66.153a0,0,0,0,1,0,0H0a0,0,0,0,1,0,0V3.525A3.525,3.525,0,0,1,3.525,0Z" transform="translate(688.197 209.171)" fill="#acdaff"/>
        <path id="Path_131184" data-name="Path 131184" d="M-.936-.144l5.8.169V74.232H.164Z" transform="translate(631.627 199.916)" fill="#acdaff"/>
        <path id="Path_131188" data-name="Path 131188" d="M4.864-.144l-5.8.169V74.232h4.7Z" transform="translate(673.931 199.916)" fill="#acdaff"/>
        <path id="Path_131185" data-name="Path 131185" d="M-1.255-.079l4.282.1v78.2H-.139Z" transform="translate(646.39 195.926)" fill="#acdaff"/>
        <path id="Path_131186" data-name="Path 131186" d="M-1.255-.079l4.282.1v78.2H-.139Z" transform="translate(660.148 195.926)" fill="#acdaff"/>
        <path id="Path_131187" data-name="Path 131187" d="M-1.255-.079l4.282.1v78.2H-.139Z" transform="translate(661.323 195.926)" fill="#acdaff"/>
        <path id="Rectangle_15793" data-name="Rectangle 15793" d="M3.525,0h0A3.525,3.525,0,0,1,7.051,3.525V66.153a0,0,0,0,1,0,0H0a0,0,0,0,1,0,0V3.525A3.525,3.525,0,0,1,3.525,0Z" transform="translate(615.164 209.171)" fill="#acdaff"/>
        <path id="Path_131183" data-name="Path 131183" d="M702.692,273.816H699.2V222.987a.5.5,0,1,0-1,0v50.828H695.4v-4.31a4.169,4.169,0,0,0-7.434-2.605,5.3,5.3,0,0,0-10.52.97v5.946h-3.378V267.87a5.305,5.305,0,1,0-10.611,0v5.946h-3.378V267.87a5.305,5.305,0,1,0-10.611,0v5.946h-3.378V267.87a5.305,5.305,0,1,0-10.611,0v5.946h-3.378V267.87a5.3,5.3,0,0,0-10.52-.97,4.169,4.169,0,0,0-7.434,2.605v4.31h-2.794V222.987a.5.5,0,1,0-1,0v50.828h-6.074a.5.5,0,0,0,0,1h10.031a.5.5,0,0,0,.684,0h6.661a.5.5,0,0,0,.684,0h9.114a.5.5,0,0,0,.3,0h4.078a.5.5,0,0,0,.3,0h9.3a.5.5,0,0,0,.3,0h4.078a.5.5,0,0,0,.3,0h9.3a.5.5,0,0,0,.3,0h4.078a.5.5,0,0,0,.3,0h9.3a.5.5,0,0,0,.3,0H677.8a.5.5,0,0,0,.3,0h9.114a.5.5,0,0,0,.684,0h6.661a.5.5,0,0,0,.684,0h10.031a.5.5,0,0,0,.5-.5c0-.277-2.808-.5-3.085-.5Zm-81.194,0h-6.341v-4.31a3.171,3.171,0,1,1,6.341,0Zm9.607,0H622.5V267.87a4.3,4.3,0,1,1,8.605,0Zm13.988,0h-8.6V267.87a4.3,4.3,0,1,1,8.6,0v5.946Zm13.988,0h-8.605V267.87a4.3,4.3,0,1,1,8.605,0Zm13.988,0h-8.6V267.87a4.3,4.3,0,1,1,8.6,0v5.946Zm13.988-4.31v4.31h-8.6V267.87a4.3,4.3,0,1,1,8.6,0v1.636Zm7.344,4.31H688.06v-4.31a3.171,3.171,0,1,1,6.341,0Zm-2.707-47.333a.5.5,0,1,0-1,0v6.86a.5.5,0,1,0,1,0Zm-7.611,34.508a.5.5,0,0,0,.5-.5v-2.2a3.9,3.9,0,0,0-1.5-2.9l-.327-.283-.327.283a3.9,3.9,0,0,0-1.5,2.9v2.2a.5.5,0,1,0,1,0v-2.2a1.1,1.1,0,1,1,1.652,0v2.2A.5.5,0,0,0,684.082,260.99Zm7.611-47.4a.5.5,0,1,0-1,0v6.86a.5.5,0,1,0,1,0Zm-.5,38.174a.5.5,0,0,0-.5.5v10.958a.5.5,0,1,0,1,0V252.266A.5.5,0,0,0,691.193,251.764ZM677.45,213.732l.005,29.337a.5.5,0,1,0,1,0l-.005-10.767h8.6v4.391a7.529,7.529,0,0,0-.423-.633,9.492,9.492,0,0,0-3.671-2.892l-.209-.1-.209.1a9.5,9.5,0,0,0-3.671,2.892,7.044,7.044,0,0,0-1.394,3.53.509.509,0,0,0-.032.175V269a.5.5,0,1,0,1,0V258.292c0-2.445,1.642-4.743,4.3-6.042,2.66,1.3,4.3,3.6,4.3,6.042v5.224a.5.5,0,1,0,1,0v-5.224a6.95,6.95,0,0,0-1.426-4.163,9.492,9.492,0,0,0-3.671-2.892l-.209-.1-.209.1a9.5,9.5,0,0,0-3.671,2.892c-.154.206-.293.418-.423.633v-4.391h8.6v21.9a.5.5,0,1,0,1,0V212.231a3.208,3.208,0,0,1,6.341.693l0,57.411a.5.5,0,1,0,1,0l0-57.411a4.207,4.207,0,0,0-7.344-2.817v-6.018a6.949,6.949,0,0,0-1.426-4.163,9.492,9.492,0,0,0-3.671-2.892l-.209-.1-.209.1a9.495,9.495,0,0,0-3.671,2.892,6.954,6.954,0,0,0-1.426,4.163v9.644Zm6.131,35.633h-1.652v-9.142a1.1,1.1,0,1,1,1.652,0Zm3.477,0h-2.474v-9.142a3.9,3.9,0,0,0-1.5-2.9l-.327-.283-.327.283a3.9,3.9,0,0,0-1.5,2.9v9.142h-2.474v-9.142c0-2.445,1.642-4.743,4.3-6.042,2.66,1.3,4.3,3.6,4.3,6.042ZM683.581,231.3h-1.652v-9.142a1.1,1.1,0,1,1,1.652,0Zm-5.128-27.21c0-2.445,1.642-4.743,4.3-6.042,2.66,1.3,4.3,3.6,4.3,6.042v8.04a4.24,4.24,0,0,0-.076.795.5.5,0,0,0,.076.265v.042h-2.474v-9.142a3.9,3.9,0,0,0-1.5-2.9l-.327-.283-.327.283a3.9,3.9,0,0,0-1.5,2.9v9.142h-2.474Zm5.128,0v9.142h-1.652v-9.142a1.1,1.1,0,1,1,1.652,0Zm-5.128,10.147h8.6v4.391a7.544,7.544,0,0,0-.423-.633,9.491,9.491,0,0,0-3.671-2.892l-.209-.1-.209.1a9.5,9.5,0,0,0-3.671,2.892c-.154.206-.293.418-.423.633Zm0,7.921c0-2.445,1.642-4.743,4.3-6.042,2.66,1.3,4.3,3.6,4.3,6.042V231.3h-2.474v-9.142a3.9,3.9,0,0,0-1.5-2.9l-.327-.283-.327.283a3.9,3.9,0,0,0-1.5,2.9V231.3h-2.474Zm13.241,17.219a.5.5,0,1,0-1,0v6.86a.5.5,0,1,0,1,0Zm-35.588,21.616a.5.5,0,0,0,.5-.5V249.615a3.9,3.9,0,0,0-1.5-2.9l-.327-.283-.327.283a3.9,3.9,0,0,0-1.5,2.9v10.874a.5.5,0,1,0,1,0V249.615a1.1,1.1,0,1,1,1.652,0v10.874A.5.5,0,0,0,656.106,260.991Zm-41.443,9.935a.5.5,0,0,0,.5-.5l-.009-57.5a3.208,3.208,0,0,1,6.341-.693l0,47.545a.5.5,0,1,0,1,0l0-9.4H631.1v4.391a7.53,7.53,0,0,0-.423-.633,9.49,9.49,0,0,0-3.671-2.892l-.209-.1-.209.1a9.5,9.5,0,0,0-3.671,2.892,6.954,6.954,0,0,0-1.426,4.163l.013,9.075a.5.5,0,1,0,1,0l-.013-9.075c0-2.445,1.643-4.743,4.3-6.042,2.66,1.3,4.3,3.6,4.3,6.042v15.731a.5.5,0,1,0,1,0V239.766a.492.492,0,0,0-.032-.175,7.045,7.045,0,0,0-1.394-3.53,9.491,9.491,0,0,0-3.671-2.892l-.209-.1-.209.1a9.5,9.5,0,0,0-3.671,2.892c-.153.206-.293.418-.423.633V232.3H631.1l.022,11.567a.5.5,0,1,0,1,0l-.022-39.781a6.949,6.949,0,0,0-1.426-4.163,9.49,9.49,0,0,0-3.671-2.892l-.209-.1-.209.1a9.5,9.5,0,0,0-3.671,2.892,6.954,6.954,0,0,0-1.426,4.163v6.018a4.207,4.207,0,0,0-7.344,2.817l.009,57.5a.5.5,0,0,0,.5.5ZM627.628,231.3h-1.652v-9.142a1.1,1.1,0,1,1,1.652,0Zm-5.129-18.11a.5.5,0,0,0,.076-.265,4.229,4.229,0,0,0-.076-.795v-8.041c0-2.445,1.643-4.743,4.3-6.042,2.66,1.3,4.3,3.6,4.3,6.042v9.142h-2.474v-9.142a3.9,3.9,0,0,0-1.5-2.9l-.327-.283-.327.283a3.9,3.9,0,0,0-1.5,2.9v9.142H622.5v-.042Zm5.129-9.1v9.142h-1.652v-9.142a1.1,1.1,0,1,1,1.652,0ZM622.5,214.236H631.1v4.391a7.509,7.509,0,0,0-.423-.633,9.49,9.49,0,0,0-3.671-2.892l-.209-.1-.209.1a9.5,9.5,0,0,0-3.671,2.892c-.153.206-.293.418-.423.633Zm0,7.921c0-2.445,1.643-4.743,4.3-6.042,2.66,1.3,4.3,3.6,4.3,6.042V231.3h-2.474v-9.142a3.9,3.9,0,0,0-1.5-2.9l-.327-.283-.327.283a3.9,3.9,0,0,0-1.5,2.9V231.3H622.5Zm5.129,27.21h-1.652v-9.142a1.1,1.1,0,1,1,1.652,0Zm-5.129-9.142c0-2.445,1.643-4.743,4.3-6.042,2.66,1.3,4.3,3.6,4.3,6.042v9.142h-2.474v-9.142a3.9,3.9,0,0,0-1.5-2.9l-.327-.283-.327.283a3.9,3.9,0,0,0-1.5,2.9v9.142H622.5Zm-3.634-.85a.5.5,0,1,0-1,0v6.86a.5.5,0,1,0,1,0Zm9.264,20.386a.5.5,0,0,0,.5-.5v-.967a3.9,3.9,0,0,0-1.5-2.9l-.327-.283-.327.283a3.9,3.9,0,0,0-1.5,2.9v.967a.5.5,0,1,0,1,0v-.967a1.1,1.1,0,1,1,1.652,0v.967A.5.5,0,0,0,628.13,259.762Zm16.028-63.846h5.316v75.349a.5.5,0,1,0,1,0V223.626h8.6v4.391a7.525,7.525,0,0,0-.423-.633,9.49,9.49,0,0,0-3.671-2.892l-.21-.1-.209.1a9.5,9.5,0,0,0-3.671,2.892,7.044,7.044,0,0,0-1.394,3.53.508.508,0,0,0-.032.175v29.4a.5.5,0,1,0,1,0V249.614c0-2.445,1.643-4.743,4.3-6.042,2.66,1.3,4.3,3.6,4.3,6.042v10.874a.5.5,0,1,0,1,0V249.614a6.949,6.949,0,0,0-1.426-4.163,9.493,9.493,0,0,0-3.671-2.892l-.209-.1-.209.1a9.5,9.5,0,0,0-3.671,2.892c-.154.206-.293.418-.423.633v-4.391h8.605v29.57a.5.5,0,1,0,1,0v-75.35h5.164a.5.5,0,0,0,0-1h-5.184a7.02,7.02,0,0,0-1.405-3.66,9.493,9.493,0,0,0-3.671-2.892l-.209-.1-.209.1a9.5,9.5,0,0,0-3.671,2.892,7.021,7.021,0,0,0-1.405,3.66h-5.336a.5.5,0,0,0,0,1Zm11.447,44.773h-1.652v-9.142a1.1,1.1,0,1,1,1.652,0Zm3.477,0h-2.474v-9.142a3.9,3.9,0,0,0-1.5-2.9l-.327-.282-.327.282a3.9,3.9,0,0,0-1.5,2.9v9.142h-2.474v-9.142c0-2.445,1.642-4.743,4.3-6.042,2.66,1.3,4.3,3.6,4.3,6.042Zm-3.477-18.068h-1.652v-9.142a1.1,1.1,0,1,1,1.652,0Zm-5.128-27.21c0-2.445,1.642-4.743,4.3-6.042,2.66,1.3,4.3,3.6,4.3,6.042v9.142h-2.474v-9.142a3.9,3.9,0,0,0-1.5-2.9l-.327-.283-.327.283a3.9,3.9,0,0,0-1.5,2.9v9.142h-2.474Zm5.128,0v9.142h-1.652v-9.142a1.1,1.1,0,1,1,1.652,0Zm-5.128,10.147h8.6v4.391a7.53,7.53,0,0,0-.423-.633,9.49,9.49,0,0,0-3.671-2.892l-.21-.1-.209.1a9.5,9.5,0,0,0-3.671,2.892c-.154.206-.293.418-.423.633v-4.391Zm0,7.921c0-2.445,1.642-4.743,4.3-6.042,2.66,1.3,4.3,3.6,4.3,6.042v9.142h-2.474V213.48a3.9,3.9,0,0,0-1.5-2.9l-.327-.283-.327.283a3.9,3.9,0,0,0-1.5,2.9v9.142h-2.474Zm-20.74-13.431h5.749V269a.5.5,0,1,0,1,0V245.828h8.6v4.391a7.544,7.544,0,0,0-.423-.633A9.491,9.491,0,0,0,641,246.695l-.209-.1-.209.1a9.5,9.5,0,0,0-3.671,2.892,6.954,6.954,0,0,0-1.426,4.163v6.74a.5.5,0,1,0,1,0v-6.74c0-2.445,1.643-4.743,4.3-6.042,2.66,1.3,4.3,3.6,4.3,6.042v6.74a.5.5,0,1,0,1,0V235.222a.492.492,0,0,0-.032-.175,7.04,7.04,0,0,0-1.394-3.53A9.491,9.491,0,0,0,641,228.626l-.209-.1-.209.1a9.5,9.5,0,0,0-3.671,2.892c-.153.206-.293.418-.423.633V227.76h8.6v44.006a.5.5,0,1,0,1,0v-72.22a6.95,6.95,0,0,0-1.426-4.163A9.493,9.493,0,0,0,641,192.491l-.209-.1-.209.1a9.5,9.5,0,0,0-3.671,2.892,7.019,7.019,0,0,0-1.405,3.66h-5.769a.5.5,0,0,0,0,1Zm11.88,26.707h-1.652v-9.142a1.1,1.1,0,1,1,1.652,0Zm-5.129-27.21c0-2.445,1.643-4.743,4.3-6.042,2.66,1.3,4.3,3.6,4.3,6.042v9.142H642.62v-9.142a4.271,4.271,0,0,0-1.829-3.178l-.327.283a3.9,3.9,0,0,0-1.5,2.9v9.142h-2.474Zm5.129,0v9.142h-1.652v-9.142a1.1,1.1,0,1,1,1.652,0Zm-5.129,10.147h8.6v4.391a7.549,7.549,0,0,0-.423-.633A9.491,9.491,0,0,0,641,210.559l-.209-.1-.209.1a9.5,9.5,0,0,0-3.671,2.892c-.153.206-.293.418-.423.633v-4.391Zm0,7.921c0-2.445,1.643-4.743,4.3-6.042,2.66,1.3,4.3,3.6,4.3,6.042v9.142H642.62v-9.142a3.9,3.9,0,0,0-1.5-2.9l-.327-.283-.327.283a3.9,3.9,0,0,0-1.5,2.9v9.142h-2.474Zm5.129,27.21h-1.652v-9.142a1.1,1.1,0,1,1,1.652,0Zm-5.129-9.142c0-2.445,1.643-4.743,4.3-6.042,2.66,1.3,4.3,3.6,4.3,6.042v9.142H642.62v-9.142a3.9,3.9,0,0,0-1.5-2.9l-.327-.283-.327.283a3.9,3.9,0,0,0-1.5,2.9v9.142h-2.474Zm5.63,25.31a.5.5,0,0,0,.5-.5v-6.74a3.9,3.9,0,0,0-1.5-2.9l-.327-.283-.327.283a3.9,3.9,0,0,0-1.5,2.9v6.74a.5.5,0,1,0,1,0v-6.74a1.1,1.1,0,1,1,1.652,0v6.74A.5.5,0,0,0,642.119,260.992Zm27.976,0a.5.5,0,0,0,.5-.5v-6.74a3.9,3.9,0,0,0-1.5-2.9l-.327-.283-.327.283a3.9,3.9,0,0,0-1.5,2.9v6.74a.5.5,0,1,0,1,0v-6.74a1.1,1.1,0,1,1,1.652,0v6.74A.5.5,0,0,0,670.095,260.992Zm-51.229-47.4a.5.5,0,1,0-1,0v6.86a.5.5,0,1,0,1,0Zm0,12.892a.5.5,0,1,0-1,0v6.86a.5.5,0,1,0,1,0Zm-.5,25.282a.5.5,0,0,0-.5.5v10.958a.5.5,0,1,0,1,0V252.268A.5.5,0,0,0,618.365,251.766Zm45.6,9.226a.5.5,0,0,0,.5-.5v-6.74c0-2.445,1.643-4.743,4.3-6.042,2.66,1.3,4.3,3.6,4.3,6.042v6.74a.5.5,0,1,0,1,0v-6.74a6.949,6.949,0,0,0-1.426-4.163,9.491,9.491,0,0,0-3.671-2.892l-.209-.1-.209.1a9.5,9.5,0,0,0-3.671,2.892c-.154.206-.293.418-.423.633v-4.391h8.6v24a.5.5,0,1,0,1,0V200.047l5.625,0a.5.5,0,0,0,0-1l-5.645,0a7.019,7.019,0,0,0-1.405-3.66,9.492,9.492,0,0,0-3.671-2.892l-.209-.1-.209.1a9.5,9.5,0,0,0-3.671,2.892,6.954,6.954,0,0,0-1.426,4.163V269a.5.5,0,1,0,1,0V227.759h8.6v4.391a7.578,7.578,0,0,0-.423-.633,9.493,9.493,0,0,0-3.671-2.892l-.209-.1-.209.1a9.5,9.5,0,0,0-3.671,2.892,7.045,7.045,0,0,0-1.394,3.53.509.509,0,0,0-.032.175v25.267a.5.5,0,0,0,.5.5Zm.5-61.446c0-2.445,1.643-4.743,4.3-6.042,2.66,1.3,4.3,3.6,4.3,6.042v9.142H670.6v-9.142a3.9,3.9,0,0,0-1.5-2.9l-.327-.283-.327.283a3.9,3.9,0,0,0-1.5,2.9v9.142h-2.474Zm5.128,0v9.142h-1.652v-9.142a1.1,1.1,0,1,1,1.652,0Zm-5.128,10.147h8.6v4.391a7.578,7.578,0,0,0-.423-.633,9.493,9.493,0,0,0-3.671-2.892l-.209-.1-.209.1a9.5,9.5,0,0,0-3.671,2.892c-.154.206-.293.418-.423.633v-4.391Zm5.128,17.063h-1.652v-9.142a1.1,1.1,0,1,1,1.652,0Zm1,0v-9.142a3.9,3.9,0,0,0-1.5-2.9l-.327-.283-.327.283a3.9,3.9,0,0,0-1.5,2.9v9.142h-2.474v-9.142c0-2.445,1.643-4.743,4.3-6.042,2.66,1.3,4.3,3.6,4.3,6.042v9.142Zm-1,18.068h-1.652v-9.142a1.1,1.1,0,1,1,1.652,0Zm-5.128-9.142c0-2.445,1.643-4.743,4.3-6.042,2.66,1.3,4.3,3.6,4.3,6.042v9.142H670.6v-9.142a3.9,3.9,0,0,0-1.5-2.9l-.327-.283-.327.283a3.9,3.9,0,0,0-1.5,2.9v9.142h-2.474Z" transform="translate(0 0)" fill="#162139" stroke="#162139" stroke-width="0.35"/>
      </g>
    </g>
  </g>
</svg>
