<svg xmlns="http://www.w3.org/2000/svg" viewBox="0 0 112 112"><defs><clipPath id="a"><circle cx="56" cy="56" r="56" fill="#e4f6ff" data-name="Ellipse 9458" transform="translate(14567 2365)"/></clipPath></defs><g transform="translate(-14567 -2365)"><circle cx="56" cy="56" r="56" fill="#f0f8fe" data-name="Ellipse 9450" transform="translate(14567 2365)"/><g data-name="Mask Group 20451"><g clip-path="url(#a)" data-name="Group 45221"><g fill="#acdaff" data-name="Group 45220"><path d="M14615.239 2455.004h5.15v2.06h-5.15z" data-name="Rectangle 17511"/><path d="M14625.54 2455.004h5.15v2.06h-5.15z" data-name="Rectangle 17512"/><path d="M14626.57 2411.741h4.12v18.541h-4.12z" data-name="Rectangle 17509"/><path d="M14615.239 2411.741h5.15v18.541h-5.15z" data-name="Rectangle 17510"/><path d="m14622.965 2388.05 12.875 7.21h-25.751Z" data-name="Polygon 2"/><path d="M14607 2458.094h31.932v5.15H14607z" data-name="Rectangle 17508"/></g><g fill="none" data-name="Path 139251"><path d="M14579.99 2462.45h89.723c.7 0 2.23.61 2.23.972s-1.534.339-2.23.339h-89.723c-.696 0-2.779-.645-2.779-1.011s2.083-.3 2.779-.3Z"/><path fill="#162139" d="M14579.284 2462.447c.284 0 .536.003.706.003h89.723c.697 0 2.23.61 2.23.972s-1.533.34-2.23.34h-89.723c-.696 0-2.779-.646-2.779-1.008 0-.274 1.191-.307 2.073-.307z"/></g><g data-name="shutterstock_2293188995 [Converted]"><g data-name="Layer 1"><g stroke="#162139" data-name="Group 44918"><path fill="#1e3454" stroke-width=".8" d="M14639.711 2458.36H14607l-.019-.376 8.592-.854h15.576l8.582.853-.019.376Zm-28.907-.377h25.1l-4.786-.476h-15.529Z" data-name="Path 137919"/><path fill="#1e3454" stroke-width=".8" d="M14615.869 2411.17a.188.188 0 0 1-.189-.189v-14.33a.189.189 0 1 1 .377 0v14.33a.188.188 0 0 1-.188.189Z" data-name="Path 137920"/><path fill="#1e3454" stroke-width=".8" d="M14615.869 2430.093a.188.188 0 0 1-.189-.189v-17.415a.189.189 0 1 1 .377 0v17.416a.188.188 0 0 1-.188.188Z" data-name="Path 137921"/><path fill="#1e3454" stroke-width=".8" d="M14615.869 2454.704a.188.188 0 0 1-.189-.189v-23.065a.189.189 0 1 1 .377 0v23.067a.188.188 0 0 1-.188.187Z" data-name="Path 137922"/><path fill="#1e3454" stroke-width=".8" d="M14630.928 2454.708a.188.188 0 0 1-.189-.189v-23.211a.189.189 0 0 1 .378 0v23.211a.189.189 0 0 1-.189.189Z" data-name="Path 137923"/><path fill="#1e3454" stroke-width=".8" d="M14630.928 2430.271a.188.188 0 0 1-.189-.189v-17.673a.189.189 0 0 1 .378 0v17.674a.189.189 0 0 1-.189.188Z" data-name="Path 137924"/><path fill="#1e3454" stroke-width=".8" d="M14630.928 2411.17a.188.188 0 0 1-.189-.189v-14.33a.189.189 0 0 1 .378 0v14.33a.189.189 0 0 1-.189.189Z" data-name="Path 137925"/><path fill="#1e3454" stroke-width=".8" d="M14637.078 2395.328a.188.188 0 0 1-.088-.022l-13.625-7.229-13.625 7.229a.189.189 0 0 1-.177-.333l13.8-7.323 13.8 7.323a.188.188 0 0 1-.089.355Z" data-name="Path 137926"/><path fill="#1e3454" stroke-width=".8" d="M14615.442 2398.939a.188.188 0 0 1-.189-.189 1.527 1.527 0 0 0-1.525-1.525h-.189v-.577a.189.189 0 0 1 .377 0v.209a1.9 1.9 0 0 1 1.714 1.893.188.188 0 0 1-.189.189Z" data-name="Path 137930"/><path fill="#1e3454" stroke-width=".8" d="M14631.289 2398.939a.188.188 0 0 1-.189-.189 1.9 1.9 0 0 1 1.714-1.893v-.209a.189.189 0 1 1 .377 0v.577h-.189a1.527 1.527 0 0 0-1.525 1.525.189.189 0 0 1-.189.189Z" data-name="Path 137931"/><path fill="#1e3454" stroke-width=".8" d="M14619.309 2405.336c-.1 0-.189-.116-.189-.259v-9.088c0-.144.084-.259.189-.259s.189.116.189.259v9.088c.002.144-.085.259-.189.259Z" data-name="Path 137932"/><path fill="#1e3454" stroke-width=".8" d="M14627.409 2405.33c-.1 0-.189-.111-.189-.25v-8.75c0-.138.084-.25.189-.25s.189.111.189.25v8.751c.002.137-.085.249-.189.249Z" data-name="Path 137961"/><path fill="#1e3454" stroke-width=".8" d="M14627.535 2404.979h-8.226a.189.189 0 0 1 0-.377h7.951v-7.433a.189.189 0 0 1 .377 0Z" data-name="Path 137933"/><path fill="#1e3454" stroke-width=".4" d="M14623.4 2403.45a3.08 3.08 0 1 1 3.08-3.08 3.084 3.084 0 0 1-3.08 3.08zm0-5.85a2.77 2.77 0 1 0 2.77 2.77 2.773 2.773 0 0 0-2.77-2.771z" data-name="Path 137934"/><g fill="#1e3454" stroke-width=".4" data-name="Group 44917"><path d="M14623.398 2398.671a.155.155 0 0 1-.155-.155v-.483a.155.155 0 1 1 .311 0v.483a.155.155 0 0 1-.156.155Z" data-name="Path 137935"/><path d="M14622.459 2398.937a.155.155 0 0 1-.134-.078l-.242-.419a.156.156 0 0 1 .269-.155l.242.419a.155.155 0 0 1-.135.233Z" data-name="Path 137936"/><path d="M14621.776 2399.622a.156.156 0 0 1-.078-.021l-.419-.242a.155.155 0 0 1 .155-.269l.419.242a.155.155 0 0 1-.078.29Z" data-name="Path 137937"/><path d="M14621.552 2400.552h-.483a.155.155 0 1 1 0-.311h.483a.155.155 0 1 1 0 .311Z" data-name="Path 137938"/><path d="M14621.367 2401.7a.155.155 0 0 1-.078-.29l.419-.242a.155.155 0 0 1 .155.269l-.419.242a.155.155 0 0 1-.077.021Z" data-name="Path 137939"/><path d="M14622.233 2402.539a.155.155 0 0 1-.135-.233l.242-.419a.156.156 0 0 1 .27.155l-.242.419a.155.155 0 0 1-.135.078Z" data-name="Path 137940"/><path d="M14623.399 2402.835a.155.155 0 0 1-.155-.155v-.483a.155.155 0 0 1 .311 0v.483a.155.155 0 0 1-.156.155Z" data-name="Path 137941"/><path d="M14624.633 2402.507a.156.156 0 0 1-.135-.078l-.242-.419a.155.155 0 0 1 .269-.155l.242.419a.156.156 0 0 1-.057.212.153.153 0 0 1-.077.021Z" data-name="Path 137942"/><path d="M14625.406 2401.642a.155.155 0 0 1-.078-.021l-.419-.242a.155.155 0 0 1 .155-.269l.419.242a.155.155 0 0 1-.078.29Z" data-name="Path 137943"/><path d="M14625.722 2400.482h-.483a.155.155 0 1 1 0-.311h.483a.155.155 0 0 1 0 .311Z" data-name="Path 137944"/><path d="M14624.997 2399.56a.155.155 0 0 1-.078-.29l.419-.242a.155.155 0 1 1 .155.269l-.419.242a.153.153 0 0 1-.077.021Z" data-name="Path 137945"/><path d="M14624.347 2398.899a.155.155 0 0 1-.135-.233l.242-.419a.156.156 0 0 1 .269.155l-.242.419a.156.156 0 0 1-.134.078Z" data-name="Path 137946"/><path d="m14624.31 2401.274-.061-.015-1.005-.535v-1.391a.132.132 0 1 1 .263 0v1.232l.866.461a.132.132 0 0 1-.062.248Z" data-name="Path 137947"/></g><path fill="#1e3454" stroke-width=".8" d="M14639.5 2463.15a.188.188 0 0 1-.189-.189v-4.086a.189.189 0 0 1 .377 0v4.086a.188.188 0 0 1-.188.189z" data-name="Path 137948"/><path fill="#1e3454" stroke-width=".8" d="M14607.2 2463.15a.188.188 0 0 1-.189-.189v-4.086a.189.189 0 0 1 .377 0v4.086a.188.188 0 0 1-.188.189z" data-name="Path 137949"/><path fill="#1e3454" stroke-width=".8" d="M14623.4 2387.46a.188.188 0 0 1-.189-.189v-8.831a.189.189 0 0 1 .377 0v8.833a.188.188 0 0 1-.188.187Z" data-name="Path 137951"/><path fill="#1e3454" stroke-width=".8" d="M14626.329 2456.881a.188.188 0 0 1-.189-.189v-51.333a.189.189 0 0 1 .377 0v51.334a.188.188 0 0 1-.188.188Z" data-name="Path 137952"/><path fill="#1e3454" stroke-width=".8" d="M14620.469 2456.881a.188.188 0 0 1-.189-.189v-51.333a.189.189 0 0 1 .377 0v51.334a.188.188 0 0 1-.188.188Z" data-name="Path 137953"/><path fill="#1e3454" stroke-width=".8" d="M14631.563 2412.266a.188.188 0 0 1-.189-.189v-.48h-4.674a.189.189 0 1 1 0-.377h5.053v.857a.189.189 0 0 1-.19.189Z" data-name="Path 137954"/><path fill="#1e3454" stroke-width=".8" d="M14615.159 2412.266a.188.188 0 0 1-.189-.189v-.857h5.053a.189.189 0 1 1 0 .377h-4.676v.48a.188.188 0 0 1-.188.189Z" data-name="Path 137955"/><path fill="#1e3454" stroke-width=".8" d="M14615.159 2431.255a.188.188 0 0 1-.189-.189v-.857h5.053a.189.189 0 1 1 0 .377h-4.676v.48a.188.188 0 0 1-.188.189Z" data-name="Path 137956"/><path fill="#1e3454" stroke-width=".8" d="M14631.563 2431.255a.188.188 0 0 1-.189-.189v-.48h-4.674a.189.189 0 1 1 0-.377h5.053v.857a.188.188 0 0 1-.19.189Z" data-name="Path 137957"/><path fill="#1e3454" stroke-width=".8" d="M14631.152 2457.032a.188.188 0 0 1-.189-.189v-1.736h-4.263a.189.189 0 1 1 0-.377h4.642v2.113a.188.188 0 0 1-.19.189Z" data-name="Path 137958"/><path fill="#1e3454" stroke-width=".8" d="M14615.559 2457.032a.188.188 0 0 1-.189-.189v-2.113h4.642a.189.189 0 1 1 0 .377h-4.265v1.736a.188.188 0 0 1-.188.189Z" data-name="Path 137959"/><path fill="none" stroke-linecap="round" d="M14608.251 2395.726h29.871" data-name="Line 1250"/></g></g></g></g></g></g></svg>