<svg xmlns="http://www.w3.org/2000/svg" xmlns:xlink="http://www.w3.org/1999/xlink" width="112" height="112" viewBox="0 0 112 112">
  <defs>
    <clipPath id="clip-path">
      <circle id="Ellipse_9458" data-name="Ellipse 9458" cx="56" cy="56" r="56" transform="translate(14567.127 2225.344)" fill="#e4f6ff"/>
    </clipPath>
  </defs>
  <g id="Kerala" transform="translate(-14567 -2365)">
    <circle id="Ellipse_9450" data-name="Ellipse 9450" cx="56" cy="56" r="56" transform="translate(14567 2365)" fill="#f0f8fe"/>
    <g id="Mask_Group_20446" data-name="Mask Group 20446" transform="translate(-0.127 139.656)" clip-path="url(#clip-path)">
      <path id="Path_133825" data-name="Path 133825" d="M123.678,76.46H108.516v-4.7A1.157,1.157,0,0,0,107.36,70.6h-3.238V57.041h2.158a2.185,2.185,0,0,0,1.649-.736,2.3,2.3,0,0,0,.571-1.516,2.186,2.186,0,0,0-.111-.694l-.016-.043L93.533,14.8V10.386l3.508-8.013a1.548,1.548,0,0,0,.141-.645A1.7,1.7,0,0,0,96.655.517a1.727,1.727,0,0,0-1.21-.51A1.605,1.605,0,0,0,94.5.32l-1.25.627A33.588,33.588,0,0,1,87.8,3.108V1.3a1.157,1.157,0,1,0-2.314,0V3.709a34.537,34.537,0,0,1-5.764.785V1.3a1.157,1.157,0,1,0-2.314,0V4.54H71.643V1.3a1.157,1.157,0,1,0-2.314,0V4.54H63.566V1.3a1.157,1.157,0,1,0-2.314,0V4.54H55.488V1.3a1.157,1.157,0,1,0-2.314,0V4.54H47.411V1.3a1.157,1.157,0,1,0-2.314,0V4.5a34.416,34.416,0,0,1-5.763-.773V1.3a1.157,1.157,0,1,0-2.314,0v1.83A33.446,33.446,0,0,1,30.245.287L30.178.251a1.758,1.758,0,0,0-.748-.169A1.9,1.9,0,0,0,28.3.455a1.6,1.6,0,0,0-.669,1.274,1.545,1.545,0,0,0,.144.644L30.933,10.4v4.407L16.44,54.062l-.037.117a2.751,2.751,0,0,0-.089.682,2.17,2.17,0,0,0,.633,1.569,2.269,2.269,0,0,0,1.6.614h2.541V70.606H17.473a1.157,1.157,0,0,0-1.157,1.158v4.7H1.157a1.157,1.157,0,0,0,0,2.315H123.678a1.157,1.157,0,0,0,0-2.315Zm-17.475,0H87.993V72.916h14.783a1.185,1.185,0,0,0,.19.017,1.089,1.089,0,0,0,.19-.017H106.2ZM22.255,54.728h-3.6l1.7-4.6H50.666a5.109,5.109,0,0,0-.123,1.073v1.269a1.161,1.161,0,0,0,.033.271,1.119,1.119,0,0,0-.015.176v1.811l-28.308,0ZM22.993,43H51.879l-.863,4.819h-29.8L22.992,43Zm2.628-7.117H53.153l-.86,4.8H23.848l1.774-4.8Zm2.627-7.116H54.426l-.859,4.8H26.476l1.773-4.8Zm2.633-7.131c1.694,0,20.614,0,24.821,0l-.863,4.82-25.737,0,1.778-4.817Zm31.8-12.073A3.339,3.339,0,0,1,64.1,10.68a1.2,1.2,0,0,0,.124.19l0,.007a2.561,2.561,0,0,1,.256.595l.032.138v2.246h-3.83V11.61a2.24,2.24,0,0,1,.3-.718,1.16,1.16,0,0,0,.13-.188A3.626,3.626,0,0,1,62.686,9.559ZM74.258,54.728v-1.81a1.226,1.226,0,0,0-.013-.166,1.112,1.112,0,0,0,.013-.166V51.144a4.87,4.87,0,0,0-.114-1.015h30.275l1.739,4.6ZM85.679,62.5H74.258V57.458l11.421,3.561V62.5ZM57.367,70.355a4.89,4.89,0,0,1,1.482-3.525,4.981,4.981,0,0,1,3.465-1.423,4.888,4.888,0,0,1,3.524,1.482,4.974,4.974,0,0,1,1.424,3.466v6.1h-9.9v-6.1Zm10.126-5.084a7.2,7.2,0,0,0-5.179-2.178,7.289,7.289,0,0,0-5.083,2.082,7.209,7.209,0,0,0-2.179,5.18v6.1H52.89V70.34a9.268,9.268,0,0,1,2.831-6.676,9.73,9.73,0,0,1,6.8-2.749,9.35,9.35,0,0,1,9.424,9.425V76.46H69.576v-6.1A7.282,7.282,0,0,0,67.493,65.271Zm-16.93-.454v6.946a1.189,1.189,0,0,0,.014.172V76.46h-3.1V64.818h3.088ZM91.577,16.172l1.189,3.146H68.691l-.544-3.144h23.43ZM66.744,21.631l.833,4.818h-4.02V25.5a1.157,1.157,0,1,0-2.314,0v.953H57.191l.862-4.818h8.691Zm-9.963,7.108a1.171,1.171,0,0,0,.235.024H67.977l.866,5.009H63.552c0-.032,0-.064,0-.1V31.713a1.157,1.157,0,1,0-2.314,0v1.962c0,.032,0,.064,0,.1H55.879l.9-5.033Zm-1.315,7.347H69.244l1.636,9.457a27.02,27.02,0,0,0-4.422-2.887c-1.228-.656-2.291-1.136-2.9-1.4v-2.09a1.157,1.157,0,1,0-2.314,0V41.39a36.792,36.792,0,0,0-4.695,2.34,21.893,21.893,0,0,0-2.8,1.968l1.72-9.61ZM52.858,51.313V51.2A4.307,4.307,0,0,1,54.249,48.4a20.117,20.117,0,0,1,5.415-3.74c.926-.467,1.763-.838,2.364-1.089.212-.089.394-.163.542-.22a34.82,34.82,0,0,1,5.13,2.725,15.081,15.081,0,0,1,3.065,2.555,5.679,5.679,0,0,1,.907,1.363,1.2,1.2,0,0,0,.055.126,2.65,2.65,0,0,1,.218,1.026v.169Zm.018,12.1V53.627H71.945v2.257a.117.117,0,0,0,0,.018v7.39a11.538,11.538,0,0,0-1.1-1.275,11.7,11.7,0,0,0-8.32-3.418,12.04,12.04,0,0,0-8.413,3.406,11.694,11.694,0,0,0-1.231,1.405Zm6.655-47.24H65.8l.544,3.144H63.557v-.953a1.157,1.157,0,1,0-2.314,0v.953H58.467l.563-3.144ZM74.257,71.762V64.816h3.451V76.458H74.257Zm5.764-6.946h5.656V76.458H80.022Zm-6.4-17L72.787,43H101.72l1.822,4.82-29.922,0Zm-1.234-7.133-.831-4.8H99.028l1.817,4.8H72.387Zm-1.231-7.117-.831-4.8H96.338l1.816,4.8-27,0Zm12-7.116H69.924L69.09,21.63H93.362a1.159,1.159,0,0,0,.266-.032l1.834,4.851H83.154ZM91.219,11.3v2.555H66.831V11.522l0-.105c0-.02-.006-.06-.015-.117H91.219Zm-32.841.117,0,.105v2.333H33.248V11.3l25.145,0c-.008.055-.013.1-.015.117ZM32.9,16.171H56.679l-.563,3.144H31.736ZM50.562,62.5H39.294V61.014l11.268-3.558Zm-5.4,2.315V76.459H39.3V64.816h5.866ZM101.809,70.6H87.993V64.816h.926a1.157,1.157,0,0,0,0-2.315h-.926V60.169a1.156,1.156,0,0,0-.812-1.105L80.7,57.041h21.113ZM94.218,3.051l-2.6,5.935H65.714a6.041,6.041,0,0,0-2.619-1.758,1.15,1.15,0,0,0-.759-.007,6.359,6.359,0,0,0-2.8,1.768l-26.676,0L30.529,3.049A36.477,36.477,0,0,0,46.8,6.855H77.955a36.492,36.492,0,0,0,16.263-3.8Zm-70.81,53.99H44.2L37.79,59.066a1.157,1.157,0,0,0-.808,1.1V62.5h-.925a1.157,1.157,0,1,0,0,2.315h.925V70.6H23.408ZM18.632,72.916h3.43a1.185,1.185,0,0,0,.19.017,1.09,1.09,0,0,0,.19-.017h14.54V76.46H18.632V72.916Z" transform="translate(14560.71 2248.586)" fill="#162139" stroke="#f0f8fe" stroke-width="0.7"/>
      <path id="Path_133826" data-name="Path 133826" d="M-1.78-2.406,5.273.281l5.2,1.229,19.454.208,21.227-.292L57.321,0l6.012-2.442L60.167,4.621,33.909,4.548,31.085,2.682,28.016,4.548.961,4.585Z" transform="translate(14592.361 2253.346)" fill="#acdaff"/>
      <path id="Path_133827" data-name="Path 133827" d="M.085-.473,27.046-.33l-.926,5.5L-1.887,5.116Z" transform="translate(14588.514 2277.357)" fill="#acdaff"/>
      <path id="Path_133830" data-name="Path 133830" d="M24.921-.473-1.887-.328-.966,5.24l27.848-.057Z" transform="translate(14632.46 2277.29)" fill="#acdaff"/>
      <path id="Path_133828" data-name="Path 133828" d="M.686-.585l29.609.034-1,5.5-30.629,0Z" transform="translate(14582.713 2291.812)" fill="#acdaff"/>
      <path id="Path_133829" data-name="Path 133829" d="M28.635-.585-1.333-.55-.322,5.077l31,0Z" transform="translate(14634.351 2291.688)" fill="#acdaff"/>
      <path id="Path_133831" data-name="Path 133831" d="M5.658.617A5.181,5.181,0,0,1,9.533,2.29a4.785,4.785,0,0,1,1.445,3.475l-.009,6.687H.335L.4,5.581A4.805,4.805,0,0,1,1.779,2.29,4.873,4.873,0,0,1,5.658.617Z" transform="translate(14617.334 2312.962)" fill="#acdaff"/>
    </g>
  </g>
</svg>
