<svg xmlns="http://www.w3.org/2000/svg" xmlns:xlink="http://www.w3.org/1999/xlink" width="112" height="112" viewBox="0 0 112 112">
  <defs>
    <clipPath id="clip-path">
      <circle id="Ellipse_9524" data-name="Ellipse 9524" cx="56" cy="56" r="56" transform="translate(1842.272 2433.283)" fill="#f0f8fe"/>
    </clipPath>
  </defs>
  <g id="Lakshadweep" transform="translate(-14567 -2365)">
    <circle id="Ellipse_9450" data-name="Ellipse 9450" cx="56" cy="56" r="56" transform="translate(14567 2365)" fill="#f0f8fe"/>
    <g id="Mask_Group_20461" data-name="Mask Group 20461" transform="translate(12724.728 -68.283)" clip-path="url(#clip-path)">
      <g id="Group_45297" data-name="Group 45297" transform="translate(-939.957 -3095.319)">
        <path id="Path_139486" data-name="Path 139486" d="M0,0,3.929-3.175,4.3,31.773,0,31Z" transform="translate(2829.957 5567.319)" fill="#acdaff"/>
        <rect id="Rectangle_17640" data-name="Rectangle 17640" width="73" height="3" transform="translate(2801.957 5610.319)" fill="#acdaff"/>
        <path id="Path_139487" data-name="Path 139487" d="M.581,8.871v-10.4L10.591,10.981l7.6,13.274,3.982,9.9,2.655,9.774.834,11.953-5.506-2.549L16.142,40.365,10.591,27.574Z" transform="translate(2833.957 5549.319)" fill="#acdaff"/>
        <path id="Path_139488" data-name="Path 139488" d="M331.052,454.933c-4.929-3.027-10.336-2.944-15.79.764-1.4-14.326,7.734-28.956,15.79-38.236V399.8c13.029,14.142,29.368,38.448,27.045,62.216-8.8-5.99-17.527-5.892-25.423-.615v2.552H374.45a32.328,32.328,0,0,1-6.912,9.882,11.733,11.733,0,0,1,10.951,2.78.812.812,0,1,1-1.094,1.2c-4.77-4.336-10.567-2.808-15.688.107a.841.841,0,0,1-.4.105.828.828,0,0,1-.4-.105c-5.119-2.916-10.916-4.443-15.686-.111a.48.48,0,0,1-.079.066.816.816,0,0,1-.939,0,.655.655,0,0,1-.083-.066c-4.767-4.333-10.564-2.805-15.686.111a.817.817,0,0,1-.8,0c-5.122-2.916-10.918-4.443-15.686-.111a.505.505,0,0,1-.083.066.814.814,0,0,1-.938,0,.627.627,0,0,1-.079-.066c-4.77-4.333-10.567-2.805-15.686.111a.813.813,0,1,1-.805-1.413,24.5,24.5,0,0,1,6.181-2.571,23.506,23.506,0,0,1-1.774-9.987h32.293v-9.02Zm-30.493,19,.235-.057-.235.057Zm.285-.066c.079-.019.159-.035.235-.05-.076.016-.155.031-.235.05Zm1.351-.244a11.478,11.478,0,0,1,9.2,2.52c5.1-4.171,11.163-2.875,16.64.143,5.474-3.018,11.54-4.314,16.636-.143,5.1-4.171,11.163-2.875,16.636.143.6-.33,1.208-.639,1.816-.922l-.009,0a28.737,28.737,0,0,0,8.7-9.79h-71.4a19.171,19.171,0,0,0,1.785,8.047h0Zm30.481-57.978v43.827a22.009,22.009,0,0,1,17.79-2.837c-.945-11.758-12.333-33.424-19.121-43.157a.812.812,0,1,1,1.332-.929c7.078,10.146,18.573,32.308,19.457,44.6a27.619,27.619,0,0,1,4.529,2.063c.758-19.772-11.248-40.385-23.987-55.149v11.581Zm-4.861,6.531h0a.816.816,0,0,1,.812.815l-.35,28.869a16.5,16.5,0,0,1,2.776,1.2V419.968c-7.515,9.052-14.383,21.216-14.306,32.972a15.089,15.089,0,0,1,9.908-1.505l.35-28.444a.816.816,0,0,1,.812-.815h0Z" transform="translate(2502.333 5145.548)" fill="#162139" fill-rule="evenodd"/>
        <path id="Path_139489" data-name="Path 139489" d="M-.278-.681l1.467.574V3.938L-.278,3.45Z" transform="translate(2833.79 5557.472)" fill="#162139"/>
        <path id="Path_139490" data-name="Path 139490" d="M0,2.342,1.692,0l-.2,4.025H.342Z" transform="matrix(0.875, -0.485, 0.485, 0.875, 2833.108, 5558.056)" fill="#162139"/>
        <path id="Path_139491" data-name="Path 139491" d="M0,.354,1.729-2.4l1.85.143L.7,1.7Z" transform="translate(2828.093 5569.842)" fill="#162139"/>
        <path id="Path_139492" data-name="Path 139492" d="M-.044,1.375,1.95-1.638l-.8,5.322L.43,3.9Z" transform="translate(2829.234 5568.807)" fill="#162139"/>
        <line id="Line_1333" data-name="Line 1333" x2="72" transform="translate(2801.457 5613.819)" fill="none" stroke="#162139" stroke-width="1.5"/>
      </g>
    </g>
  </g>
</svg>
