<svg xmlns="http://www.w3.org/2000/svg" xmlns:xlink="http://www.w3.org/1999/xlink" width="112" height="112" viewBox="0 0 112 112">
  <defs>
    <clipPath id="clip-path">
      <circle id="Ellipse_9458" data-name="Ellipse 9458" cx="56" cy="56" r="56" transform="translate(14567.127 2225.344)" fill="#e4f6ff"/>
    </clipPath>
  </defs>
  <g id="Leh" transform="translate(-14567 -2365)">
    <circle id="Ellipse_9450" data-name="Ellipse 9450" cx="56" cy="56" r="56" transform="translate(14567 2365)" fill="#f0f8fe"/>
    <g id="Mask_Group_20446" data-name="Mask Group 20446" transform="translate(-0.127 139.656)" clip-path="url(#clip-path)">
      <g id="shutterstock_2237610567_Converted_" data-name="shutterstock_2237610567 [Converted]" transform="translate(14787.01 1849.437)">
        <g id="Group_43820" data-name="Group 43820" transform="translate(-213.47 395.31)">
          <path id="Path_133832" data-name="Path 133832" d="M902.931,839.38a1.042,1.042,0,0,0-.732-.3H886.434v-9.213a1.036,1.036,0,0,0-1.035-1.036H874.908v-9.436a1.036,1.036,0,0,0-1.036-1.036h-3.684a14.877,14.877,0,0,0-9.716-9.381v-2.288h0v-.271h.394a1.036,1.036,0,0,0,0-2.071h-.394v-1.918h.394a1.036,1.036,0,0,0,0-2.071h-.394v-1.083a1.035,1.035,0,1,0-2.071,0v1.083H856.94l1.116-3.213h.464a1.036,1.036,0,0,0,0-2.071h-.346l-.576-2.964a1.029,1.029,0,0,0,.982-1.025,1.048,1.048,0,0,0-1.035-1.036H857.2l-.7-3.583a1.033,1.033,0,0,0-1.016-.838h-.8v-2.651h1.561a1.036,1.036,0,0,0,0-2.071h-1.561v-4.727a1.035,1.035,0,1,0-2.071,0V780.9H851.05a1.036,1.036,0,0,0,0,2.071h1.561v2.651h-.868a1.035,1.035,0,0,0-1.01.809l-.81,3.612h-.371a1.028,1.028,0,0,0-.09,2.053l-.666,2.971h-.371a1.036,1.036,0,0,0,0,2.071h.5l1.288,3.213h-1.778v-1.083a1.035,1.035,0,1,0-2.071,0v1.083h-.605a1.036,1.036,0,0,0,0,2.071h.605v1.918h-.605a1.036,1.036,0,0,0,0,2.071h.605v.271a1.016,1.016,0,0,0,.109.445v1.844a14.878,14.878,0,0,0-9.715,9.381h-3.685a1.035,1.035,0,0,0-1.035,1.036v9.436H821.546a1.035,1.035,0,0,0-1.035,1.035v9.213H805.095a1.035,1.035,0,0,0-1.035,1.035v17.764a1.035,1.035,0,0,0,1.035,1.035h27.544v1.921a1.036,1.036,0,0,0,2.071,0h0v-1.921h37.768v1.921a1.036,1.036,0,0,0,2.071,0h0v-1.921H902.2a1.035,1.035,0,0,0,1.035-1.035V840.112a1.042,1.042,0,0,0-.3-.732Zm-12.139,4.99v-3.223h4.281v3.223Zm-6.354,0v-3.223h4.283v3.223Zm-6.354,0v-3.223h4.283v3.223Zm-6.354,0v-3.223h4.283v3.223Zm-6.088,0v-3.223h4.017v3.223Zm-34.363,0v-3.223h4.282v3.223Zm-6.354,0v-3.223h4.283v3.223Zm-6.354,0v-3.223h4.283v3.223Zm-6.353,0v-3.223H816.5v3.223Zm10.362-8.173h2.308l-2.308,1.487Zm9.456-2.14v3.524l-2.163,1.383a.945.945,0,0,0-.116.112h-5.514l7.793-5.019Zm50.659,5.019H877.4a1.01,1.01,0,0,0-.329-.365l-2.166-1.393V834.07l7.788,5.007Zm-38.973,7.365h19.849v2.085H843.723Zm20.152-7.061a1.042,1.042,0,0,0-.3.732v4.258H843.723v-4.258a1.035,1.035,0,0,0-1.035-1.036h-9.144l7.858-5.025H866l7.814,5.025h-9.2a1.044,1.044,0,0,0-.732.3Zm-23.812-10.492v3.562l-5.956,3.808v-3.534Zm6.02-.659v3.752h-3.949v-3.752Zm6.353,0v3.752h-4.282v-3.752Zm6.354,0v3.752h-4.283v-3.752Zm8.652,4.29v-3.248l5.394,3.467v3.249Zm-2.071-.539h-4.51v-3.752h4.51Zm3.565-7.727v1.9H857.422v-2.2h11.515v.3Zm-11.2-2.369h-1.346a1.035,1.035,0,0,0-1.035,1.035v3.237h-3.757v-3.237a1.036,1.036,0,0,0-1.036-1.036h-1.345v-.729a4.26,4.26,0,0,1,8.519,0v.729Zm-8.209,2.071v2.2H838.009v-2.2Zm-11.889,17.191h4.018v3.223h-4.018Zm6.089,9.45h19.849v2.085H843.723Zm53.422-9.45h4.018v3.223h-4.018Zm-15.1-4.95h2.316v1.489Zm2.316-2.071h-5.537L873.8,830.9h10.558v3.228Zm-11.526-13.7v8.4h-1.829v-5.639c0-.072-.01-.142-.011-.214,0-.019.011-.035.011-.054s-.015-.058-.018-.09a14.93,14.93,0,0,0-.248-2.4ZM852.572,787.7h2.059l.457,2.35h-3.042Zm-.991,4.421h3.909l.574,2.953h-5.145Zm4.283,5.024-1.116,3.213h-2.3l-1.288-3.213h4.708Zm-4.121,5.284H858.4v1.918h-9.858v-1.918h3.2Zm-3.2,5.906v-1.916H858.4v1.916Zm-6.79,5.816a12.741,12.741,0,0,1,9.041-3.745h5.358a12.787,12.787,0,0,1,12.719,11.483H859.8v-.729a6.33,6.33,0,0,0-12.661,0v.729h-9.068A12.742,12.742,0,0,1,841.753,814.147Zm-7.646,6.28h2.1a14.913,14.913,0,0,0-.248,2.4c0,.031-.018.058-.018.09s.01.035.011.054c0,.072-.011.142-.011.214v5.639h-1.83v-8.4ZM833.072,830.9h.044l-5.012,3.228h-5.524V830.9ZM806.13,841.147h4.018v3.223H806.13Zm30.162,12.4h-1.583v-.9h.994a1.035,1.035,0,1,0,0-2.071h-.941v-2.458a1.035,1.035,0,1,0-2.071,0v2.458h-.941a1.035,1.035,0,1,0,0,2.071h.887v.9h-1.476a1.036,1.036,0,0,0,0,2.071h1.476v1.221H806.13v-10.4h35.522v10.4H834.71V855.62h1.583a1.036,1.036,0,0,0,0-2.071Zm7.431,1.2h19.849v2.087H843.723Zm32.409-1.2h-1.584v-.9h1a1.035,1.035,0,1,0,0-2.071H874.6v-2.458a1.035,1.035,0,1,0-2.071,0v2.458h-.941a1.035,1.035,0,1,0,0,2.071h.887v.9H871a1.036,1.036,0,0,0,0,2.071h1.476v1.221h-6.835v-10.4h35.52v10.4H874.549V855.62h1.584a1.036,1.036,0,0,0,0-2.071Z" transform="translate(-804.059 -775.14)" fill="#162139" stroke="#f0f8fe" stroke-width="0.8"/>
          <path id="Path_133833" data-name="Path 133833" d="M3414.8,3435.08a1.035,1.035,0,1,0-.732-.3A1.043,1.043,0,0,0,3414.8,3435.08Z" transform="translate(-3337.622 -3355.467)" fill="#162139" stroke="#f0f8fe" stroke-width="0.8"/>
          <path id="Path_133834" data-name="Path 133834" d="M3414.8,3298.98a1.035,1.035,0,1,0-.732-.3A1.043,1.043,0,0,0,3414.8,3298.98Z" transform="translate(-3337.622 -3223.337)" fill="#162139" stroke="#f0f8fe" stroke-width="0.8"/>
          <path id="Path_133835" data-name="Path 133835" d="M2463.285,2045.561a1.034,1.034,0,1,0-.732-.3A1.044,1.044,0,0,0,2463.285,2045.561Z" transform="translate(-2413.872 -2006.486)" fill="#162139" stroke="#f0f8fe" stroke-width="0.8"/>
          <path id="Path_133836" data-name="Path 133836" d="M2411.6,2891.96a2.589,2.589,0,1,0,1.831.758A2.6,2.6,0,0,0,2411.6,2891.96Z" transform="translate(-2362.186 -2830.202)" fill="#162139" stroke="#f0f8fe" stroke-width="0.8"/>
          <path id="Path_133837" data-name="Path 133837" d="M3579.325,3435.08a1.034,1.034,0,1,0-.732-.3A1.044,1.044,0,0,0,3579.325,3435.08Z" transform="translate(-3497.352 -3355.467)" fill="#162139" stroke="#f0f8fe" stroke-width="0.8"/>
          <path id="Path_133838" data-name="Path 133838" d="M3579.325,3298.98a1.034,1.034,0,1,0-.732-.3A1.044,1.044,0,0,0,3579.325,3298.98Z" transform="translate(-3497.352 -3223.337)" fill="#162139" stroke="#f0f8fe" stroke-width="0.8"/>
          <path id="Path_133839" data-name="Path 133839" d="M3743.845,3435.08a1.035,1.035,0,1,0-.732-.3A1.043,1.043,0,0,0,3743.845,3435.08Z" transform="translate(-3657.073 -3355.467)" fill="#162139" stroke="#f0f8fe" stroke-width="0.8"/>
          <path id="Path_133840" data-name="Path 133840" d="M3743.845,3298.98a1.035,1.035,0,1,0-.732-.3A1.043,1.043,0,0,0,3743.845,3298.98Z" transform="translate(-3657.073 -3223.337)" fill="#162139" stroke="#f0f8fe" stroke-width="0.8"/>
          <path id="Path_133841" data-name="Path 133841" d="M3908.435,3435.08a1.036,1.036,0,1,0-.732-.3A1.042,1.042,0,0,0,3908.435,3435.08Z" transform="translate(-3816.86 -3355.467)" fill="#162139" stroke="#f0f8fe" stroke-width="0.8"/>
          <path id="Path_133842" data-name="Path 133842" d="M3908.435,3298.98a1.036,1.036,0,1,0-.732-.3A1.042,1.042,0,0,0,3908.435,3298.98Z" transform="translate(-3816.86 -3223.337)" fill="#162139" stroke="#f0f8fe" stroke-width="0.8"/>
          <path id="Path_133843" data-name="Path 133843" d="M996.855,3433a1.035,1.035,0,1,0,.732.3A1.044,1.044,0,0,0,996.855,3433Z" transform="translate(-990.225 -3355.458)" fill="#162139" stroke="#f0f8fe" stroke-width="0.8"/>
          <path id="Path_133844" data-name="Path 133844" d="M996.855,3296.9a1.034,1.034,0,1,0,.732.3A1.044,1.044,0,0,0,996.855,3296.9Z" transform="translate(-990.225 -3223.328)" fill="#162139" stroke="#f0f8fe" stroke-width="0.8"/>
          <path id="Path_133845" data-name="Path 133845" d="M1161.405,3433a1.035,1.035,0,1,0,.732.3A1.044,1.044,0,0,0,1161.405,3433Z" transform="translate(-1149.975 -3355.458)" fill="#162139" stroke="#f0f8fe" stroke-width="0.8"/>
          <path id="Path_133846" data-name="Path 133846" d="M1161.405,3296.9a1.034,1.034,0,1,0,.732.3A1.044,1.044,0,0,0,1161.405,3296.9Z" transform="translate(-1149.975 -3223.328)" fill="#162139" stroke="#f0f8fe" stroke-width="0.8"/>
          <path id="Path_133847" data-name="Path 133847" d="M1325.935,3433a1.035,1.035,0,1,0,.732.3A1.043,1.043,0,0,0,1325.935,3433Z" transform="translate(-1309.705 -3355.458)" fill="#162139" stroke="#f0f8fe" stroke-width="0.8"/>
          <path id="Path_133848" data-name="Path 133848" d="M1325.935,3296.9a1.034,1.034,0,1,0,.732.3A1.043,1.043,0,0,0,1325.935,3296.9Z" transform="translate(-1309.705 -3223.328)" fill="#162139" stroke="#f0f8fe" stroke-width="0.8"/>
          <path id="Path_133849" data-name="Path 133849" d="M1490.485,3433a1.035,1.035,0,1,0,.732.3A1.043,1.043,0,0,0,1490.485,3433Z" transform="translate(-1469.454 -3355.458)" fill="#162139" stroke="#f0f8fe" stroke-width="0.8"/>
          <path id="Path_133850" data-name="Path 133850" d="M1490.485,3296.9a1.034,1.034,0,1,0,.732.3A1.043,1.043,0,0,0,1490.485,3296.9Z" transform="translate(-1469.454 -3223.328)" fill="#162139" stroke="#f0f8fe" stroke-width="0.8"/>
          <path id="Path_133851" data-name="Path 133851" d="M.643.558H3.231L3.856,3.52H0Z" transform="translate(47.593 11.69)" fill="#acdaff"/>
          <path id="Path_133852" data-name="Path 133852" d="M.008,0H5.646L4.333,3.818H1.571Z" transform="translate(46.593 21.69)" fill="#acdaff"/>
          <path id="Path_133853" data-name="Path 133853" d="M-.447.244,10.091.306V2.844L-.447,2.819Z" transform="translate(44.593 26.69)" fill="#acdaff"/>
          <path id="Path_133854" data-name="Path 133854" d="M-.447.244,10.091.306V2.844L-.447,2.819Z" transform="translate(44.593 30.69)" fill="#acdaff"/>
          <path id="Path_133871" data-name="Path 133871" d="M-.447.244,20.068.312V3.1L-.447,3.072Z" transform="translate(39.779 74.818)" fill="#acdaff"/>
          <path id="Path_133872" data-name="Path 133872" d="M-.447.244,20.068.312V3.1L-.447,3.072Z" transform="translate(39.779 78.937)" fill="#acdaff"/>
          <path id="Path_133855" data-name="Path 133855" d="M-.319,0H4.306V3.847H-.319Z" transform="translate(61.593 65.69)" fill="#acdaff"/>
          <path id="Path_133861" data-name="Path 133861" d="M-.319,0H4.306V3.847H-.319Z" transform="translate(33.593 65.69)" fill="#acdaff"/>
          <path id="Path_133867" data-name="Path 133867" d="M-.319,0H4.313V4.4H-.319Z" transform="translate(38.039 52.774)" fill="#acdaff"/>
          <path id="Path_133868" data-name="Path 133868" d="M-.319,0H4.719V4.4H-.319Z" transform="translate(44.06 52.774)" fill="#acdaff"/>
          <path id="Path_133869" data-name="Path 133869" d="M-.319,0H4.67V4.4H-.319Z" transform="translate(50.357 52.774)" fill="#acdaff"/>
          <path id="Path_133870" data-name="Path 133870" d="M-.319,0H4.962V4.4H-.319Z" transform="translate(56.76 52.774)" fill="#acdaff"/>
          <path id="Path_133856" data-name="Path 133856" d="M-.319,0H4.6V3.847H-.319Z" transform="translate(67.662 65.69)" fill="#acdaff"/>
          <path id="Path_133862" data-name="Path 133862" d="M-.319,0H4.6V3.847H-.319Z" transform="translate(27.22 65.69)" fill="#acdaff"/>
          <path id="Path_133857" data-name="Path 133857" d="M-.319,0H4.607V3.847H-.319Z" transform="translate(74.035 65.69)" fill="#acdaff"/>
          <path id="Path_133863" data-name="Path 133863" d="M-.319,0H4.607V3.847H-.319Z" transform="translate(20.844 65.69)" fill="#acdaff"/>
          <path id="Path_133858" data-name="Path 133858" d="M-.319,0H4.607V3.847H-.319Z" transform="translate(80.411 65.69)" fill="#acdaff"/>
          <path id="Path_133864" data-name="Path 133864" d="M-.319,0H4.607V3.847H-.319Z" transform="translate(14.468 65.69)" fill="#acdaff"/>
          <path id="Path_133859" data-name="Path 133859" d="M-.319,0H4.607V3.847H-.319Z" transform="translate(86.781 65.69)" fill="#acdaff"/>
          <path id="Path_133865" data-name="Path 133865" d="M-.319,0H4.607V3.847H-.319Z" transform="translate(8.098 65.69)" fill="#acdaff"/>
          <path id="Path_133860" data-name="Path 133860" d="M-.319,0H4.607V3.847H-.319Z" transform="translate(93.152 65.69)" fill="#acdaff"/>
          <path id="Path_133866" data-name="Path 133866" d="M-.319,0H4.607V3.847H-.319Z" transform="translate(1.722 65.69)" fill="#acdaff"/>
        </g>
      </g>
    </g>
  </g>
</svg>
