<svg xmlns="http://www.w3.org/2000/svg" xmlns:xlink="http://www.w3.org/1999/xlink" width="112" height="112" viewBox="0 0 112 112">
  <defs>
    <clipPath id="clip-path">
      <circle id="Ellipse_9458" data-name="Ellipse 9458" cx="56" cy="56" r="56" transform="translate(14567.127 2225.344)" fill="#e4f6ff"/>
    </clipPath>
  </defs>
  <g id="Paris" transform="translate(892 -4934.824)">
    <g id="Group_43013" data-name="Group 43013" transform="translate(-15459 2569.824)">
      <circle id="Ellipse_9450" data-name="Ellipse 9450" cx="56" cy="56" r="56" transform="translate(14567 2365)" fill="#f0f8fe"/>
      <g id="Mask_Group_20446" data-name="Mask Group 20446" transform="translate(-0.127 139.656)" clip-path="url(#clip-path)">
        <g id="Group_44798" data-name="Group 44798" transform="translate(14451.65 1278.575)">
          <g id="Group_44735" data-name="Group 44735" transform="translate(141.329 960.83)">
            <path id="Path_137140" data-name="Path 137140" d="M-.544,1.734l2.5-2.312L4.469,1.734v3.65H-.544Z" transform="translate(28.037 10.408)" fill="#acdaff"/>
            <path id="Path_137141" data-name="Path 137141" d="M6.151-1.143l4.909-.68L15.783-.5l4.092,3.241,2.087,3.975h-23.2l2.6-4.744Z" transform="translate(20.037 80.408)" fill="#acdaff"/>
            <rect id="Rectangle_17456" data-name="Rectangle 17456" width="10" height="4" transform="translate(25.037 16.408)" fill="#acdaff"/>
            <rect id="Rectangle_17457" data-name="Rectangle 17457" width="21" height="4" transform="translate(20.037 51.408)" fill="#acdaff"/>
            <rect id="Rectangle_17458" data-name="Rectangle 17458" width="32" height="4" transform="translate(14.037 68.408)" fill="#acdaff"/>
            <path id="Path_136947" data-name="Path 136947" d="M203.87,984.217v-3.5l3.089-3.005,3.084,3.005v3.5" transform="translate(-176.959 -968.78)" fill="none" stroke="#162139" stroke-linecap="round" stroke-linejoin="round" stroke-width="1.4"/>
            <line id="Line_998" data-name="Line 998" y2="8.93" transform="translate(30.001 0)" fill="none" stroke="#162139" stroke-linecap="round" stroke-linejoin="round" stroke-width="1.4"/>
            <rect id="Rectangle_17432" data-name="Rectangle 17432" width="10.395" height="4.185" transform="translate(24.801 16.336)" fill="none" stroke="#162139" stroke-linecap="round" stroke-linejoin="round" stroke-width="1.4"/>
            <rect id="Rectangle_17433" data-name="Rectangle 17433" width="21.24" height="4.185" transform="translate(19.378 50.934)" fill="none" stroke="#162139" stroke-linecap="round" stroke-linejoin="round" stroke-width="1.4"/>
            <rect id="Rectangle_17434" data-name="Rectangle 17434" width="32.704" height="4.92" transform="translate(13.649 67.577)" fill="none" stroke="#162139" stroke-linecap="round" stroke-linejoin="round" stroke-width="1.4"/>
            <g id="Group_44732" data-name="Group 44732" transform="translate(9.422 20.526)">
              <g id="Group_44730" data-name="Group 44730" transform="translate(23.202)">
                <path id="Path_136948" data-name="Path 136948" d="M234.3,1097.88a104.189,104.189,0,0,0,7.565,14.6" transform="translate(-223.915 -1045.903)" fill="none" stroke="#162139" stroke-linecap="round" stroke-linejoin="round" stroke-width="1.4"/>
                <path id="Path_136949" data-name="Path 136949" d="M223.56,1066.34c1.01,3.809,2.238,7.761,3.724,11.766" transform="translate(-218.856 -1031.049)" fill="none" stroke="#162139" stroke-linecap="round" stroke-linejoin="round" stroke-width="1.4"/>
                <path id="Path_136950" data-name="Path 136950" d="M214.68,999.63a134.359,134.359,0,0,0,3.454,30.234" transform="translate(-214.669 -999.63)" fill="none" stroke="#162139" stroke-linecap="round" stroke-linejoin="round" stroke-width="1.4"/>
              </g>
              <g id="Group_44731" data-name="Group 44731">
                <path id="Path_136951" data-name="Path 136951" d="M178.375,1097.88a104.2,104.2,0,0,1-7.565,14.6" transform="translate(-170.81 -1045.903)" fill="none" stroke="#162139" stroke-linecap="round" stroke-linejoin="round" stroke-width="1.4"/>
                <path id="Path_136952" data-name="Path 136952" d="M192.534,1066.34c-1.01,3.809-2.238,7.761-3.724,11.766" transform="translate(-179.288 -1031.049)" fill="none" stroke="#162139" stroke-linecap="round" stroke-linejoin="round" stroke-width="1.4"/>
                <path id="Path_136953" data-name="Path 136953" d="M201.645,999.63a134.359,134.359,0,0,1-3.454,30.234" transform="translate(-183.705 -999.63)" fill="none" stroke="#162139" stroke-linecap="round" stroke-linejoin="round" stroke-width="1.4"/>
              </g>
            </g>
            <g id="Group_44733" data-name="Group 44733" transform="translate(25.203 55.817)">
              <path id="Path_136954" data-name="Path 136954" d="M203.571,1066.34a52.864,52.864,0,0,1-2.931,11.766" transform="translate(-200.64 -1066.34)" fill="none" stroke="#162139" stroke-linecap="round" stroke-linejoin="round" stroke-width="1.4"/>
              <path id="Path_136955" data-name="Path 136955" d="M213.24,1066.34a52.861,52.861,0,0,0,2.931,11.766" transform="translate(-206.574 -1066.34)" fill="none" stroke="#162139" stroke-linecap="round" stroke-linejoin="round" stroke-width="1.4"/>
            </g>
            <path id="Path_136956" data-name="Path 136956" d="M211.651,1117.5a12.627,12.627,0,0,0-24.081,0" transform="translate(-169.282 -1030.464)" fill="none" stroke="#162139" stroke-linecap="round" stroke-linejoin="round" stroke-width="1.4"/>
            <line id="Line_1249" data-name="Line 1249" x2="73.537" transform="translate(-6.77 87.717)" fill="none" stroke="#162139" stroke-linecap="round" stroke-linejoin="round" stroke-width="1.4"/>
          </g>
          <path id="Path_136957" data-name="Path 136957" d="M148.77,1009.179a7.547,7.547,0,0,1,14.813-2.042,4.556,4.556,0,0,1,2.888-1.048,4.6,4.6,0,0,1,4.6,4.6h2.174" transform="translate(-9.679 -19.216)" fill="none" stroke="#162139" stroke-linecap="round" stroke-linejoin="round" stroke-width="1.4"/>
          <path id="Path_136958" data-name="Path 136958" d="M128.66,1023.957a4.275,4.275,0,0,1,6.592-3.6,6.51,6.51,0,0,1,12.252.09,4.235,4.235,0,0,1,2.444-.772,4.285,4.285,0,0,1,0,8.57h-6.74" transform="translate(-0.207 -26.026)" fill="none" stroke="#162139" stroke-linecap="round" stroke-linejoin="round" stroke-width="1.4"/>
          <path id="Path_136959" data-name="Path 136959" d="M232.33,1039.2h3.084a4.411,4.411,0,0,1,6.809-3.714,6.706,6.706,0,0,1,11.755-1.592,2.9,2.9,0,0,1,2.476-1.4c1.518,0,2.873,1.084,2.883,3.312a5.848,5.848,0,0,1,4.026-.423,2.892,2.892,0,0,1-.719,5.692h-5.031" transform="translate(-49.033 -33.086)" fill="none" stroke="#162139" stroke-linecap="round" stroke-linejoin="round" stroke-width="1.4"/>
        </g>
      </g>
    </g>
  </g>
</svg>
